<?xml version="1.0" encoding="utf-8"?>
<!-- Generator: Adobe Illustrator 24.0.1, SVG Export Plug-In . SVG Version: 6.00 Build 0)  -->
<svg version="1.1" id="Layer_1" xmlns="http://www.w3.org/2000/svg" xmlns:xlink="http://www.w3.org/1999/xlink" x="0px" y="0px"
	 viewBox="0 0 300 300" style="enable-background:new 0 0 300 300;" xml:space="preserve">
<style type="text/css">
	.st0{fill:#65C8D0;}
	.st1{fill:#B5A4E2;}
	.st2{fill:#8968E2;}
	.st3{fill:#892C6D;}
	.st4{fill:#432C47;}
	.st5{fill:#FD5E5A;}
	.st6{fill:#31253D;}
	.st7{fill:#B982B0;}
	.st8{fill:#15484C;}
	.st9{fill:#446D70;}
	.st10{fill:#698A8D;}
	.st11{fill:url(#SVGID_1_);}
	.st12{fill:#5E4373;}
	.st13{fill:#BDC0DB;}
	.st14{fill:#757AD8;}
	.st15{fill:#009245;}
	.st16{fill:#006837;}
	.st17{fill:#FC7575;}
	.st18{fill:#FC9595;}
	.st19{fill:#50536D;}
	.st20{fill:#8D90B2;}
	.st21{fill:#53566B;}
	.st22{fill:#00A99D;}
	.st23{fill:#068C7F;}
	.st24{fill:#381A3F;}
	.st25{fill:#FFD30E;}
	.st26{fill:#F7931E;}
	.st27{fill:#95BAF9;}
	.st28{fill:#FFF7CF;}
	.st29{fill:#F57408;}
	.st30{fill:#F7ADEB;}
	.st31{fill:#FEF3F7;}
	.st32{fill:#210075;}
	.st33{fill:#18287D;}
	.st34{fill:#172866;}
	.st35{fill:#00114D;}
	.st36{fill:#FC4F4F;}
	.st37{fill:#630035;}
	.st38{fill:#D64343;}
	.st39{fill:#840046;}
	.st40{fill:#000A40;}
	.st41{fill:#52093F;}
	.st42{fill:#B97A56;}
	.st43{fill:#F6A272;}
	.st44{fill:#1B3753;}
	.st45{fill:#1B2B80;}
	.st46{opacity:0.51;fill:#630035;}
	.st47{fill:#EA0062;}
	.st48{fill:#9D336B;}
	.st49{fill:#F14E76;}
	.st50{fill:#F266A1;}
	.st51{fill:#FAC2D9;}
	.st52{fill:#FD3530;}
</style>
<g>
	<g>
		<g>
			<path class="st0" d="M275,193.6c1.5,1.5,4.2,2.5,7.2,2.4c3-0.1,5.6-1.3,7-2.9c-1.5-1.5-4.2-2.5-7.2-2.4
				C279,190.8,276.4,192,275,193.6z"/>
			<path class="st0" d="M227.2,113.7c2.9,1.7,5.2,5.4,5.8,10c0.6,4.5-0.5,8.7-2.8,11.2c-2.9-1.7-5.2-5.4-5.8-10
				C223.7,120.4,224.9,116.2,227.2,113.7z"/>
			<path class="st0" d="M244.2,129.3c0.4,2.6-0.8,5.8-3.2,8.4c-2.4,2.6-5.6,3.9-8.2,3.7c-0.4-2.6,0.8-5.8,3.2-8.4
				C238.4,130.4,241.6,129.1,244.2,129.3z"/>
			<ellipse transform="matrix(0.308 -0.9514 0.9514 0.308 22.4952 310.877)" class="st0" cx="225" cy="140" rx="3.4" ry="8.3"/>
			<path class="st0" d="M235.6,152.2c-2.2,1.4-5.6,1.8-9,0.7c-3.4-1.1-5.9-3.4-6.9-5.8c2.2-1.4,5.6-1.8,9-0.7
				C232.1,147.4,234.7,149.7,235.6,152.2z"/>
			<path class="st0" d="M239.1,164c-2.2,1.4-5.6,1.8-9,0.7c-3.4-1.1-5.9-3.4-6.9-5.8c2.2-1.4,5.6-1.8,9-0.7
				C235.6,159.3,238.1,161.6,239.1,164z"/>
			<path class="st0" d="M241.4,174.7c-2.2,1.4-5.6,1.8-9,0.7c-3.4-1.1-5.9-3.4-6.9-5.8c2.2-1.4,5.6-1.8,9-0.7
				C237.9,170,240.5,172.3,241.4,174.7z"/>
			<path class="st0" d="M241.4,173.8c2.2,1.4,5.6,1.8,9,0.7c3.4-1.1,5.9-3.4,6.9-5.8c-2.2-1.4-5.6-1.8-9-0.7
				C244.9,169,242.4,171.3,241.4,173.8z"/>
			<path class="st0" d="M247.3,139.4c0.4,2.6-0.8,5.8-3.2,8.4c-2.4,2.6-5.6,3.9-8.2,3.7c-0.4-2.6,0.8-5.8,3.2-8.4
				C241.6,140.6,244.7,139.3,247.3,139.4z"/>
			<path class="st0" d="M250.9,151c0.4,2.6-0.8,5.8-3.2,8.4c-2.4,2.6-5.6,3.9-8.2,3.7c-0.4-2.6,0.8-5.8,3.2-8.4
				C245.1,152.2,248.2,150.8,250.9,151z"/>
			<g>
				<path class="st0" d="M238.2,219.8c2.5,9,4.4,18.2,5.7,27.4l2.8,0.2c-1.5-9.6-3.6-19.1-6.3-28.4c-4.3-14.3-9.9-28.2-16.9-41.2
					c-3.5-6.5-7.3-12.8-11.3-18.9c-4.1-6.1-8.5-11.9-13.1-17.5c-4.6-5.6-9.5-10.9-14.7-15.9c-5.2-5-10.5-9.7-16.3-13.9l-0.2,0.4
					c5.7,4.2,11,9.1,16,14.1c5.1,5.1,9.9,10.4,14.4,16.1c4.5,5.6,8.8,11.5,12.8,17.6c4,6.1,7.6,12.4,11,18.9
					C228.9,191.7,234.2,205.5,238.2,219.8z"/>
				<path class="st0" d="M147.1,92.8c0,5,2.6,10.8,7.4,15.1s10.5,6.1,15.1,5.1c0-5-2.6-10.8-7.4-15.1
					C157.3,93.6,151.6,91.8,147.1,92.8z"/>
				<path class="st0" d="M181.6,91.5c-3.6,3.1-6.2,8.9-6.3,15.7c-0.1,6.8,2.2,12.8,5.7,16c3.6-3.1,6.2-8.9,6.3-15.7
					C187.4,100.7,185.1,94.8,181.6,91.5z"/>
				<path class="st0" d="M201.1,104.3c-4.3,1.9-8.1,6.8-9.9,13.3c-1.8,6.5-1,12.9,1.6,17.1c4.3-1.9,8.1-6.8,9.9-13.3
					C204.4,114.9,203.6,108.4,201.1,104.3z"/>
				<path class="st0" d="M213.7,119.1c-4.3,1.9-8.1,6.8-9.9,13.3c-1.8,6.5-1,12.9,1.6,17.1c4.3-1.9,8.1-6.8,9.9-13.3
					C217,129.7,216.3,123.2,213.7,119.1z"/>
				<path class="st0" d="M228.4,134.5c-4.6,0.7-9.5,4.3-12.7,10.1c-3.3,5.8-4,12.2-2.5,16.9c4.6-0.7,9.5-4.3,12.7-10.1
					C229.1,145.6,229.9,139.2,228.4,134.5z"/>
				<path class="st0" d="M238.2,153c-4.1-0.5-9.1,1.4-13.1,5.6c-4,4.2-6,9.6-5.7,14c4.1,0.5,9.1-1.4,13.1-5.6
					C236.5,162.8,238.5,157.4,238.2,153z"/>
				<path class="st0" d="M245.4,164.7c-4.1-0.5-9.1,1.4-13.1,5.6c-4,4.2-6,9.6-5.7,14c4.1,0.5,9.1-1.4,13.1-5.6
					C243.7,174.5,245.7,169.2,245.4,164.7z"/>
				<path class="st0" d="M248.8,181.4c-3.5-0.5-7.8,1.2-11.2,4.8c-3.4,3.6-5.2,8.2-4.9,12c3.5,0.5,7.8-1.2,11.2-4.8
					C247.4,189.8,249.1,185.2,248.8,181.4z"/>
				<path class="st0" d="M252,198.7c-2.4-1.8-6.2-2.3-10.1-1.1c-3.8,1.2-6.8,3.9-7.9,6.9c2.4,1.8,6.2,2.3,10.1,1.1
					C247.9,204.4,250.9,201.7,252,198.7z"/>
				<path class="st0" d="M252.8,212.9c-1.4-2-4.2-3.5-7.4-3.6c-3.2-0.1-6.1,1.1-7.6,3c1.4,2,4.2,3.5,7.4,3.6
					C248.4,216,251.2,214.8,252.8,212.9z"/>
				<path class="st0" d="M152.8,130.7c3.7,3,9.6,4,15.6,2.3c6-1.7,10.7-5.7,12.6-10.3c-3.7-3-9.6-4-15.6-2.3
					C159.4,122.1,154.7,126.1,152.8,130.7z"/>
				<path class="st0" d="M164.4,142.9c3.7,3,9.6,4,15.6,2.3c6-1.7,10.7-5.7,12.6-10.3c-3.7-3-9.6-4-15.6-2.3
					C171,134.3,166.3,138.3,164.4,142.9z"/>
				<path class="st0" d="M176.7,157.7c3.7,3,9.6,4,15.6,2.3c6-1.7,10.7-5.7,12.6-10.3c-3.7-3-9.6-4-15.6-2.3
					C183.2,149.1,178.6,153.1,176.7,157.7z"/>
				<path class="st0" d="M190.9,168.1c3,2.4,7.8,3.3,12.7,1.9c4.9-1.4,8.7-4.7,10.3-8.4c-3-2.4-7.8-3.3-12.7-1.9
					C196.3,161.1,192.5,164.4,190.9,168.1z"/>
				<path class="st0" d="M201.5,177.8c2.5,2.1,6.3,2.8,10.3,1.7c4-1.1,7-3.8,8.3-6.9c-2.5-2.1-6.3-2.8-10.3-1.7
					C205.8,171.9,202.7,174.7,201.5,177.8z"/>
				<path class="st0" d="M207.4,189.5c2.5,2.1,6.3,2.8,10.3,1.7c4-1.1,7-3.8,8.3-6.9c-2.5-2.1-6.3-2.8-10.3-1.7
					C211.7,183.7,208.6,186.4,207.4,189.5z"/>
				<path class="st0" d="M214,200.3c2,2.1,5.4,3.4,9.3,3c3.8-0.3,7.1-2.2,8.7-4.6c-2-2.1-5.4-3.4-9.3-3
					C218.8,196,215.6,197.8,214,200.3z"/>
				<path class="st0" d="M220.1,213.6c2.3,0.9,5.5,0.5,8.5-1.3c2.9-1.8,4.9-4.6,5.3-7.3c-2.3-0.9-5.5-0.5-8.5,1.3
					C222.5,208.2,220.5,211,220.1,213.6z"/>
				<path class="st0" d="M227.4,221.9c1.9,0.3,4.2-0.4,6.2-2.3c2-1.8,3.1-4.2,3-6.3c-1.9-0.3-4.2,0.4-6.2,2.3
					C228.5,217.5,227.4,219.9,227.4,221.9z"/>
				<path class="st0" d="M232.5,224.4c1.2,0.3,2.7-0.1,3.9-1.2c1.2-1.1,1.8-2.7,1.7-4c-1.2-0.3-2.7,0.1-3.9,1.2
					C233,221.5,232.4,223,232.5,224.4z"/>
				<path class="st0" d="M233.9,228.3c1.2,0.3,2.7-0.1,3.9-1.2c1.2-1.1,1.8-2.7,1.7-4c-1.2-0.3-2.7,0.1-3.9,1.2
					C234.5,225.4,233.8,226.9,233.9,228.3z"/>
			</g>
			<path class="st0" d="M238.5,163.5c2.4,9.9,4.3,19.9,5.6,30c0.6,5,1.2,10.1,1.5,15.2c0.3,5.1,0.6,10.2,0.5,15.2
				c0,7.9-0.4,15.7-1.4,23.5h2.1c0.9-7.8,1.2-15.7,1.1-23.6c0-5.1-0.3-10.2-0.7-15.3c-0.4-5.1-1-10.2-1.7-15.2
				c-1.5-10.1-3.5-20.2-6-30.1c-1.3-4.9-2.7-9.9-4.2-14.7c-1.5-4.9-3.2-9.7-5.1-14.5l-0.6,0.2c1.8,4.7,3.4,9.6,4.9,14.5
				C235.9,153.6,237.3,158.5,238.5,163.5z"/>
			<path class="st0" d="M240.1,247.4c0.6-1.1,1.1-2.2,1.7-3.3c5.4-10.1,11.5-19.9,18-29.4c6.5-9.5,13.3-18.8,20.6-27.7l-0.1-0.1
				c-7.5,8.8-14.5,17.9-21.2,27.3c-6.7,9.4-13,19.1-18.6,29.2c-0.7,1.3-1.5,2.7-2.2,4H240.1z"/>
			<path class="st0" d="M287.5,174.9c-2.4,0.2-4.9,1.8-6.4,4.4c-1.6,2.6-1.8,5.5-0.9,7.8c2.4-0.2,4.9-1.8,6.4-4.4
				C288.2,180.1,288.5,177.1,287.5,174.9z"/>
			<path class="st0" d="M269.8,180.5c-1,1.9-1,4.8,0.1,7.6c1.1,2.8,3.1,4.9,5.1,5.7c1-1.9,1-4.8-0.1-7.6
				C273.7,183.3,271.8,181.2,269.8,180.5z"/>
			<path class="st0" d="M269.2,201.4c1.6,1.4,4.4,2.1,7.4,1.7c3-0.4,5.5-1.8,6.7-3.6c-1.6-1.4-4.4-2.1-7.4-1.7
				C272.8,198.2,270.3,199.6,269.2,201.4z"/>
			<path class="st0" d="M262,210.6c1.6,1.4,4.4,2.1,7.4,1.7c3-0.4,5.5-1.8,6.7-3.6c-1.6-1.4-4.4-2.1-7.4-1.7
				C265.6,207.4,263.2,208.9,262,210.6z"/>
			<path class="st0" d="M257.1,218c1.6,1.4,4.4,2.1,7.4,1.7c3-0.4,5.5-1.8,6.7-3.6c-1.6-1.4-4.4-2.1-7.4-1.7
				C260.8,214.8,258.3,216.2,257.1,218z"/>
			<path class="st0" d="M251.7,226.2c1.6,1.4,4.4,2.1,7.4,1.7c3-0.4,5.5-1.8,6.7-3.6c-1.6-1.4-4.4-2.1-7.4-1.7
				C255.4,223,252.9,224.4,251.7,226.2z"/>
			<path class="st0" d="M263.5,188.4c-1,1.9-1,4.8,0.1,7.6c1.1,2.8,3.1,4.9,5.1,5.7c1-1.9,1-4.8-0.1-7.6
				C267.5,191.2,265.5,189.2,263.5,188.4z"/>
			<path class="st0" d="M257.5,196.6c-1,1.9-1,4.8,0.1,7.6c1.1,2.8,3.1,4.9,5.1,5.7c1-1.9,1-4.8-0.1-7.6
				C261.5,199.4,259.5,197.3,257.5,196.6z"/>
			<path class="st0" d="M251.8,204.8c-1,1.9-1,4.8,0.1,7.6c1.1,2.8,3.1,4.9,5.1,5.7c1-1.9,1-4.8-0.1-7.6
				C255.8,207.7,253.8,205.6,251.8,204.8z"/>
			<path class="st0" d="M246.3,212.9c-1,1.9-1,4.8,0.1,7.6c1.1,2.8,3.1,4.9,5.1,5.7c1-1.9,1-4.8-0.1-7.6
				C250.3,215.8,248.3,213.7,246.3,212.9z"/>
		</g>
	</g>
	<g>
		<path class="st1" d="M126.8,213c-1,1.1-2.8,1.7-4.9,1.6c-2.1-0.1-3.8-0.9-4.8-2c1-1.1,2.8-1.7,4.9-1.6
			C124.1,211.1,125.9,211.9,126.8,213z"/>
		<path class="st1" d="M209.7,169.5c-4.1,2.3-8,4.9-11.7,7.8c-3.7,2.8-7.3,5.9-10.7,9.1c-3.4,3.2-6.6,6.6-9.7,10.2
			c-3.1,3.6-5.9,7.3-8.6,11.1c-5.4,7.7-9.8,16-13.4,24.7c-1.5,3.7-2.8,7.5-4,11.3h1.8c1.1-3.6,2.2-7.2,3.6-10.7
			c3.4-8.6,7.7-16.9,12.9-24.7c2.6-3.9,5.4-7.6,8.4-11.2c3-3.6,6.2-7,9.5-10.2c3.3-3.2,6.8-6.3,10.5-9.2c3.7-2.9,7.5-5.6,11.5-7.9
			L209.7,169.5z"/>
		<path class="st1" d="M224.9,158.9c-0.2,3.1-2.3,6.6-5.8,9c-3.5,2.4-7.4,3.2-10.4,2.4c0.2-3.1,2.3-6.6,5.8-9
			C217.9,158.9,221.9,158.1,224.9,158.9z"/>
		<path class="st1" d="M201.6,156.3c2.3,2.1,3.7,5.9,3.5,10.1c-0.2,4.2-2.1,7.8-4.6,9.6c-2.3-2.1-3.7-5.9-3.5-10.1
			C197.2,161.7,199.1,158.1,201.6,156.3z"/>
		<path class="st2" d="M131.9,116.2c2.7,1.6,4.8,5,5.4,9.2c0.6,4.2-0.5,8.1-2.6,10.4c-2.7-1.6-4.8-5-5.4-9.2
			C128.7,122.3,129.8,118.5,131.9,116.2z"/>
		<path class="st2" d="M147.7,130.6c0.3,2.4-0.7,5.4-3,7.8c-2.3,2.4-5.2,3.6-7.6,3.5c-0.3-2.4,0.7-5.4,3-7.8
			C142.4,131.7,145.3,130.4,147.7,130.6z"/>
		<path class="st2" d="M136.9,142.8c-2.1,1.3-5.2,1.7-8.3,0.6c-3.1-1-5.5-3.1-6.4-5.4c2.1-1.3,5.2-1.7,8.3-0.6
			C133.7,138.4,136,140.5,136.9,142.8z"/>
		<path class="st2" d="M140,151.9c-2.1,1.3-5.2,1.7-8.3,0.6c-3.1-1-5.5-3.1-6.4-5.4c2.1-1.3,5.2-1.7,8.3-0.6
			C136.7,147.5,139.1,149.6,140,151.9z"/>
		<path class="st2" d="M143,162.8c-2.1,1.3-5.2,1.7-8.3,0.6c-3.1-1-5.5-3.1-6.4-5.4c2.1-1.3,5.2-1.7,8.3-0.6
			C139.7,158.4,142.1,160.5,143,162.8z"/>
		<path class="st2" d="M145.1,172.7c-2.1,1.3-5.2,1.7-8.3,0.6c-3.1-1-5.5-3.1-6.4-5.4c2.1-1.3,5.2-1.7,8.3-0.6
			C141.9,168.3,144.2,170.4,145.1,172.7z"/>
		<path class="st2" d="M147.3,182.2c-2.1,1.3-5.2,1.7-8.3,0.6c-3.1-1-5.5-3.1-6.4-5.4c2.1-1.3,5.2-1.7,8.3-0.6
			C144.1,177.8,146.4,179.9,147.3,182.2z"/>
		<path class="st2" d="M148.8,193.4c-2.1,1.3-5.2,1.7-8.3,0.6c-3.1-1-5.5-3.1-6.4-5.4c2.1-1.3,5.2-1.7,8.3-0.6
			C145.6,189,147.9,191.1,148.8,193.4z"/>
		<path class="st2" d="M150.6,206.9c-2.1,1.3-5.2,1.7-8.3,0.6c-3.1-1-5.5-3.1-6.4-5.4c2.1-1.3,5.2-1.7,8.3-0.6
			C147.4,202.6,149.7,204.7,150.6,206.9z"/>
		<path class="st2" d="M150.9,216.2c-1.3,0.8-3.3,1.1-5.3,0.4s-3.5-2-4.1-3.5c1.3-0.8,3.3-1.1,5.3-0.4
			C148.8,213.4,150.3,214.7,150.9,216.2z"/>
		<path class="st2" d="M144.9,171.7c2.1,1.3,5.2,1.7,8.3,0.6c3.1-1,5.5-3.1,6.4-5.4c-2.1-1.3-5.2-1.7-8.3-0.6
			C148.2,167.3,145.8,169.4,144.9,171.7z"/>
		<path class="st2" d="M146.6,181.3c2.1,1.3,5.2,1.7,8.3,0.6c3.1-1,5.5-3.1,6.4-5.4c-2.1-1.3-5.2-1.7-8.3-0.6
			C149.8,176.9,147.5,179,146.6,181.3z"/>
		<path class="st2" d="M148.6,192.1c2.1,1.3,5.2,1.7,8.3,0.6c3.1-1,5.5-3.1,6.4-5.4c-2.1-1.3-5.2-1.7-8.3-0.6
			C151.9,187.7,149.5,189.8,148.6,192.1z"/>
		<path class="st2" d="M149.5,204.6c1.5,0.9,3.7,1.2,5.9,0.5c2.2-0.7,3.9-2.2,4.6-3.9c-1.5-0.9-3.7-1.2-5.9-0.5
			C151.8,201.5,150.1,203,149.5,204.6z"/>
		<path class="st2" d="M150.6,140c0.3,2.4-0.7,5.4-3,7.8c-2.3,2.4-5.2,3.6-7.6,3.5c-0.3-2.4,0.7-5.4,3-7.8
			C145.3,141.1,148.2,139.9,150.6,140z"/>
		<path class="st2" d="M153.9,151.6c0.3,2.4-0.7,5.4-3,7.8c-2.3,2.4-5.2,3.6-7.6,3.5c-0.3-2.4,0.7-5.4,3-7.8
			C148.6,152.6,151.5,151.4,153.9,151.6z"/>
		<path class="st1" d="M187.9,163.2c2.8,1.4,5.2,4.7,6.1,8.8c0.9,4.1,0.1,8.1-1.9,10.5c-2.8-1.4-5.2-4.7-6.1-8.8
			C185.1,169.6,185.9,165.6,187.9,163.2z"/>
		<path class="st1" d="M178.6,171.7c2.8,1.4,5.2,4.7,6.1,8.8c0.9,4.1,0.1,8.1-1.9,10.5c-2.8-1.4-5.2-4.7-6.1-8.8
			C175.8,178.1,176.6,174.2,178.6,171.7z"/>
		<path class="st1" d="M160.4,191.5c2.8-0.1,6.1,1.4,8.6,4.2c2.5,2.8,3.6,6.3,3.2,9c-2.8,0.1-6.1-1.4-8.6-4.2
			C161.1,197.6,160,194.2,160.4,191.5z"/>
		<path class="st1" d="M155,198.4c2.8-0.1,6.1,1.4,8.6,4.2c2.5,2.8,3.6,6.3,3.2,9c-2.8,0.1-6.1-1.4-8.6-4.2
			C155.6,204.5,154.5,201.1,155,198.4z"/>
		<path class="st1" d="M151.8,208.5c2.4-0.1,5.2,1.2,7.3,3.6c2.1,2.4,3.1,5.4,2.7,7.7c-2.4,0.1-5.2-1.2-7.4-3.6
			C152.4,213.8,151.5,210.9,151.8,208.5z"/>
		<path class="st1" d="M148.8,219.1c1.7-1,4.3-1.1,6.9-0.1c2.5,1,4.4,2.8,5,4.7c-1.7,1-4.3,1.1-6.9,0.1
			C151.3,222.9,149.5,221,148.8,219.1z"/>
		<path class="st1" d="M147.6,227.9c1.1-1.2,3-1.9,5.2-1.8c2.2,0.1,4,1,5,2.3c-1.1,1.2-3,1.9-5.2,1.8
			C150.4,230.1,148.6,229.2,147.6,227.9z"/>
		<path class="st1" d="M219.1,182.2c-2.7,1.6-6.7,2-10.7,0.6c-4-1.4-6.9-4.1-8-7.1c2.7-1.6,6.7-2,10.7-0.6
			C215.1,176.5,218.1,179.2,219.1,182.2z"/>
		<path class="st1" d="M210.7,189.1c-2.7,1.6-6.7,2-10.7,0.6c-4-1.4-6.9-4.1-8-7.1c2.7-1.6,6.7-2,10.7-0.6
			C206.7,183.4,209.6,186.2,210.7,189.1z"/>
		<path class="st1" d="M201.7,197.7c-2.7,1.6-6.7,2-10.7,0.6c-4-1.4-6.9-4.1-8-7.1c2.7-1.6,6.7-2,10.7-0.6
			C197.7,192,200.6,194.7,201.7,197.7z"/>
		<path class="st1" d="M191.6,203.4c-2.2,1.3-5.4,1.6-8.7,0.5c-3.2-1.1-5.7-3.4-6.5-5.8c2.2-1.3,5.4-1.6,8.7-0.5
			C188.3,198.7,190.7,201,191.6,203.4z"/>
		<path class="st1" d="M184,208.8c-1.8,1.1-4.4,1.4-7,0.5c-2.6-0.9-4.5-2.8-5.2-4.7c1.8-1.1,4.4-1.4,7-0.5
			C181.3,205,183.3,206.8,184,208.8z"/>
		<path class="st1" d="M179.4,215.8c-1.8,1.1-4.4,1.4-7,0.5c-2.6-0.9-4.5-2.8-5.2-4.7c1.8-1.1,4.4-1.4,7-0.5
			C176.8,212,178.7,213.8,179.4,215.8z"/>
		<path class="st1" d="M174.4,222.1c-1.4,1.2-3.8,1.8-6.4,1.4c-2.6-0.4-4.7-1.7-5.6-3.3c1.4-1.2,3.8-1.8,6.4-1.4
			C171.4,219.2,173.5,220.5,174.4,222.1z"/>
		<path class="st1" d="M169.6,230.1c-1.6,0.5-3.8,0-5.7-1.3c-1.9-1.3-3.1-3.1-3.2-4.8c1.6-0.5,3.8,0,5.7,1.3
			C168.3,226.6,169.5,228.4,169.6,230.1z"/>
		<path class="st1" d="M164.3,234.9c-1.3,0.1-2.8-0.5-4.1-1.7c-1.2-1.2-1.9-2.8-1.7-4.1c1.3-0.1,2.8,0.5,4.1,1.7
			C163.8,232,164.4,233.6,164.3,234.9z"/>
		<path class="st1" d="M160.7,236.1c-0.8,0.1-1.8-0.2-2.6-1c-0.8-0.8-1.1-1.8-1-2.6c0.8-0.1,1.8,0.2,2.6,1
			C160.5,234.3,160.8,235.3,160.7,236.1z"/>
		<path class="st1" d="M159.6,238.5c-0.8,0.1-1.8-0.2-2.6-1c-0.8-0.8-1.1-1.8-1-2.6c0.8-0.1,1.8,0.2,2.6,1
			C159.4,236.6,159.7,237.6,159.6,238.5z"/>
		<path class="st2" d="M142.4,162.3c2.2,9.2,4,18.4,5.2,27.8c0.6,4.7,1.1,9.4,1.4,14.1c0.3,4.7,0.5,9.4,0.5,14.1
			c0,8.5-0.6,17-1.8,25.4h2c1.1-8.4,1.6-17,1.4-25.5c0-4.7-0.3-9.5-0.7-14.2c-0.4-4.7-0.9-9.4-1.6-14.1c-1.3-9.4-3.2-18.7-5.6-27.8
			c-1.2-4.6-2.5-9.1-3.9-13.6c-1.4-4.5-3-9-4.7-13.4l-0.6,0.2c1.7,4.4,3.2,8.9,4.5,13.4C140,153.1,141.3,157.7,142.4,162.3z"/>
		<g>
			<path class="st1" d="M147.2,243.6h1.1c-3.3-5.7-7-11.2-10.8-16.6c-4.6-6.4-9.3-12.6-14.4-18.6l-0.1,0.1c5,6.1,9.6,12.4,14,18.9
				C140.7,232.7,144.1,238.1,147.2,243.6z"/>
			<path class="st1" d="M118.2,200.3c1.6,0.1,3.3,1.2,4.4,3c1.1,1.8,1.2,3.8,0.6,5.3c-1.6-0.1-3.3-1.2-4.4-3
				C117.7,203.8,117.5,201.8,118.2,200.3z"/>
			<path class="st1" d="M130.3,204.1c0.7,1.3,0.7,3.2,0,5.2c-0.7,1.9-2.1,3.3-3.4,3.9c-0.7-1.3-0.7-3.2,0-5.2
				C127.6,206,128.9,204.6,130.3,204.1z"/>
			<path class="st1" d="M130.7,218.3c-1.1,0.9-3,1.4-5,1.1c-2-0.3-3.7-1.3-4.5-2.5c1.1-0.9,3-1.4,5-1.1
				C128.2,216.1,129.9,217.1,130.7,218.3z"/>
			<path class="st1" d="M135.6,224.6c-1.1,0.9-3,1.4-5,1.1c-2-0.3-3.7-1.3-4.5-2.5c1.1-0.9,3-1.4,5-1.1
				C133.1,222.5,134.8,223.4,135.6,224.6z"/>
			<path class="st1" d="M138.9,229.7c-1.1,0.9-3,1.4-5,1.1c-2-0.3-3.7-1.3-4.5-2.5c1.1-0.9,3-1.4,5-1.1
				C136.4,227.5,138.1,228.5,138.9,229.7z"/>
			<path class="st1" d="M142.6,235.2c-1.1,0.9-3,1.4-5,1.1c-2-0.3-3.7-1.3-4.5-2.5c1.1-0.9,3-1.4,5-1.1
				C140.1,233,141.8,234,142.6,235.2z"/>
			<path class="st1" d="M134.5,209.5c0.7,1.3,0.7,3.2,0,5.2c-0.7,1.9-2.1,3.3-3.4,3.9c-0.7-1.3-0.7-3.2,0-5.2
				C131.8,211.4,133.2,210,134.5,209.5z"/>
			<path class="st1" d="M138.6,215.1c0.7,1.3,0.7,3.2,0,5.2c-0.7,1.9-2.1,3.3-3.4,3.9c-0.7-1.3-0.7-3.2,0-5.2
				S137.2,215.6,138.6,215.1z"/>
			<path class="st1" d="M142.5,220.7c0.7,1.3,0.7,3.2,0,5.2c-0.7,1.9-2.1,3.3-3.4,3.9c-0.7-1.3-0.7-3.2,0-5.2
				C139.8,222.6,141.1,221.2,142.5,220.7z"/>
			<path class="st1" d="M146.2,226.2c0.7,1.3,0.7,3.2,0,5.2c-0.7,1.9-2.1,3.3-3.4,3.9c-0.7-1.3-0.7-3.2,0-5.2
				C143.5,228.1,144.9,226.7,146.2,226.2z"/>
		</g>
	</g>
	<path class="st3" d="M252.5,245.7c0,4.1-54.1,7.4-120.8,7.4c-66.7,0-120.8-3.3-120.8-7.4c0-4.1,54.1-7.4,120.8-7.4
		C198.4,238.3,252.5,241.6,252.5,245.7z"/>
	<g>
		<g>
			<path class="st4" d="M177.7,244.2l-15.2,1.1l9.8-5l0.1-3.6c1.6,0,3,0.6,4.6,0.6C177.5,239.8,177.7,244.2,177.7,244.2z"/>
			<path class="st5" d="M141.8,145.1c0.2,0,2.1-1,2.3-0.5c0.2,0.5-2.2,1.7-2.2,1.7L141.8,145.1z"/>
			<path class="st6" d="M142,143.8c0.8-1.8,0.2-3.9-1.5-5.1l-6.5-4.6c-3.3-2.4-7.6-2.1-10.6,0.6l-21,18.4l3.2,4.2l20.6-18.5
				c1.2-1.1,3.7-2,5.1-1.2l10.3,6.9L142,143.8z"/>
			<path class="st5" d="M163.3,85.2c0,0,0.8,12.7,1.1,26.8c0.3,14.1-5.7,23.9-8.7,25.9c-3,2-15.8-0.4-15.8-0.4s-0.6,0.7-1.8,1.9
				c-1.2,1.2-2.6-0.8-2.8-1.5c-0.2-0.8-1.4-3.2-0.7-3.4c0.7-0.2,3.3-3,7.2-0.7c3.9,2.3,10.9-2.2,12.2-6.4
				C155.3,123.2,158.4,85.7,163.3,85.2z"/>
			<path class="st7" d="M162.3,111.6l-7.2-0.5c0,0,4.5-25,7.7-28.2c3.2-3.2,2.3,29.5,2.3,29.5L162.3,111.6z"/>
			<path class="st8" d="M170.1,158l7.6,81.9l-5.6-0.9l-9.7-44.2c0,0-6.4-41-6.4-55.9L170.1,158z"/>
			<path class="st4" d="M195.6,244.8h-9.9l6.9-4.2l-0.7-3.3c1.6,0,2,1,3.5,1C195.9,240.8,195.6,244.8,195.6,244.8z"/>
			<path class="st9" d="M156.4,126.9c11.7,0.3,25.9,12.4,25.9,12.4l1.9,52.7c0,0,11.2,36.8,13.5,49c0,0-6.4-0.4-6.1-0.4L172.7,197
				l-8.5-39.9l-7-15.5L156.4,126.9z"/>
			<polygon class="st10" points="164.2,157.1 174.4,196.5 191.6,240.7 172.7,197 			"/>
			<linearGradient id="SVGID_1_" gradientUnits="userSpaceOnUse" x1="155.0867" y1="111.1064" x2="185.5152" y2="111.1064">
				<stop  offset="0" style="stop-color:#EFCFE8"/>
				<stop  offset="1" style="stop-color:#FFE3FC"/>
			</linearGradient>
			<path class="st11" d="M155.9,130.4c0-0.2,2.1-30.7,2.6-35.8c0.5-5.1,4.2-14.1,8.9-15.6c3.1-1,12.8-0.2,15.1,4.3
				c6.6,12.8,0.5,57.4,0.5,57.4c-8.2,2-20.2,5-27.8,0C155.1,140.5,155.9,130.6,155.9,130.4z"/>
			<g>
				<g>
					<path class="st12" d="M114.2,231.2c0.3,0,0.7-0.1,1-0.3c0.9-0.5,1.2-1.7,0.6-2.6L88,183.1c-0.5-0.9-1.7-1.2-2.6-0.6
						c-0.9,0.5-1.2,1.7-0.6,2.6l27.8,45.2C112.9,230.8,113.5,231.2,114.2,231.2z"/>
				</g>
				<circle class="st6" cx="114.2" cy="229.4" r="13.6"/>
				<path class="st13" d="M114.2,238c4.7,0,8.6-3.9,8.6-8.6c0-4.7-3.9-8.6-8.6-8.6s-8.6,3.9-8.6,8.6
					C105.6,234.2,109.4,238,114.2,238z"/>
				<path class="st14" d="M109.9,229.4c0,2.7,2.2,4.8,4.8,4.8c2.7,0,4.8-2.2,4.8-4.8c0-2.7-2.2-4.8-4.8-4.8
					C112,224.6,109.9,226.8,109.9,229.4z"/>
				<g>
					<path class="st15" d="M47.6,165.3c0-2,1.6-3.7,3.7-3.7c2,0,3.7,1.6,3.7,3.7c0,2-1.6,3.7-3.7,3.7
						C49.2,168.9,47.6,167.3,47.6,165.3z M48.6,165.3c0,1.4,1.2,2.6,2.6,2.6c1.4,0,2.6-1.2,2.6-2.6c0-1.4-1.2-2.6-2.6-2.6
						C49.8,162.7,48.6,163.8,48.6,165.3z"/>
				</g>
				
					<rect x="50.4" y="158.1" transform="matrix(-1 -1.224647e-16 1.224647e-16 -1 102.7133 321.4733)" class="st16" width="1.9" height="5.3"/>
				<path class="st17" d="M72.8,186c0,0-6.5-4.1-9.4-3.8c-2.9,0.3-11.2,6.5-13.7,6.5c-2.5,0-3.6,0.6-4.2,0c-0.6-0.6-1.6-2.8-2.8-2.1
					c-1.2,0.6,0.2,4.8,1.7,5.7c1.4,0.9,4.6,1.6,5.7,2.6c1,1,2-2.1,3.9-3.5c1.9-1.4,5.3-0.9,6.1-0.2c0.8,0.8,3.9,1.4,4.1,1.5
					C64.3,193,72.8,186,72.8,186z"/>
				<path class="st18" d="M66.4,185.3c0,0,0.5,3-0.3,4.3c-0.8,1.3-2.1,1.4-2.4,2.4c-0.3,1.1-1.4,2.9-3,2.4c-1.6-0.5-1.9-2.2-1.1-4.9
					c0.8-2.6,1.2-3.7,2.3-3.8c1.1-0.1,1.1-0.8,1.9-0.5c0.8,0.2,0.9-0.2,1.5,0C65.3,185.2,65.4,184.7,66.4,185.3z"/>
				<path class="st19" d="M94,207.4c0,0-8.9,4.5-19.6,5.3c-10.7,0.8-16.9-5.3-16.9-5.3v-3.3c0,0,17.7,0.4,20.7-1.7
					C81.1,200.4,94,207.4,94,207.4z"/>
				<path class="st20" d="M92,219.3l2-11.9l-21.6,0.4l-15-0.4c0,0-0.6,9,1.4,11C60.9,220.5,85.7,226.5,92,219.3z"/>
				<path class="st21" d="M57.5,207.4c0.2,2.4,0.4,6.1,1,8.4c0.5,2,0.9,2.1,2.1,2.5c6.6,2.5,25.5,5.9,31.4,0.9
					c-5.7,7.9-29.5,3-33.5-0.1C56.3,217.6,57,210.2,57.5,207.4z"/>
				<g>
					<path class="st12" d="M55.9,215.3l7.4-18.2c0.4-1-0.1-2.2-1.1-2.6c-1-0.4-2.2,1.9-2.6,2.9l-6.3,13.7l-8.6-0.4l-0.1-0.4
						c-0.3-1-1.5-1.6-2.5-1.3c-1,0.3-1.6,1.5-1.3,2.5l1,3L55.9,215.3z"/>
				</g>
				<path class="st22" d="M124.7,141.8c0,0-24.4-7.1-28.6-15.2c0,0-11.7,6-26.9,4c0,0-13,4-21.1,27.1l38.3,16.8L124.7,141.8z"/>
				<path class="st22" d="M116.1,150.6c0,0-2.9,44.3-10.3,51.8c-7.5,7.5-13.2,6.8-22.2,4.6c-9-2.2-20.9-11-20.9-11L116.1,150.6z"/>
				<path class="st23" d="M80.2,201.8c9,2.2,14.8,2.9,22.2-4.6c7.5-7.5,13.7-46.6,13.7-46.6s-2.9,44.3-10.3,51.8
					c-7.5,7.5-13.2,6.8-22.2,4.6c-9-2.2-20.9-11-20.9-11l0.2-0.2C66.2,197.2,73.5,200.2,80.2,201.8z"/>
				<path class="st24" d="M38.2,214.9l66.8-59l2.3,3.3c-27.5,23.7-68.9,59.2-68.9,59.2H24.1v-2.6L38.2,214.9z"/>
				<path class="st25" d="M89.4,173.3c0,0-6.6-8.5-9.2-5.9c-2.6,2.6,5.4,9.2,5.4,9.2L89.4,173.3z"/>
				<path class="st25" d="M75.1,187.2c0,3.1,2.5,5.6,5.6,5.6c3.1,0,5.6-2.5,5.6-5.6c0-3.1-2.5-5.6-5.6-5.6
					C77.6,181.6,75.1,184.1,75.1,187.2z"/>
				<path class="st14" d="M78.1,187.2c0,1.4,1.1,2.6,2.6,2.6s2.6-1.1,2.6-2.6c0-1.4-1.1-2.6-2.6-2.6S78.1,185.8,78.1,187.2z"/>
				<g>
					<path class="st12" d="M109.9,236.7c0.4,0,0.7-0.1,1-0.3c0.9-0.6,1.2-1.8,0.7-2.7l-29.2-47.6c-0.6-0.9-1.8-1.2-2.7-0.7
						c-0.9,0.6-1.2,1.8-0.7,2.7l29.2,47.6C108.6,236.4,109.2,236.7,109.9,236.7z"/>
				</g>
				<path class="st6" d="M95.5,234.9c0,7.9,6.4,14.4,14.4,14.4s14.4-6.4,14.4-14.4c0-7.9-6.4-14.4-14.4-14.4S95.5,227,95.5,234.9z"
					/>
				<path class="st13" d="M109.9,244c5,0,9-4.1,9-9c0-5-4.1-9-9-9c-5,0-9,4.1-9,9C100.9,239.9,104.9,244,109.9,244z"/>
				<path class="st6" d="M36.6,238.8c0,5.8,4.7,10.4,10.4,10.4c5.8,0,10.4-4.7,10.4-10.4c0-5.8-4.7-10.4-10.4-10.4
					C41.3,228.4,36.6,233.1,36.6,238.8z"/>
				<circle class="st13" cx="47" cy="238.8" r="5.1"/>
				<path class="st25" d="M31.6,225.9h5v-10.7c0-1.4-1.1-2.5-2.5-2.5l0,0c-1.4,0-2.5,1.1-2.5,2.5V225.9z"/>
				<g>
					<path class="st12" d="M46.7,241.2c0.4,0,0.9-0.1,1.2-0.4c0.9-0.7,1-1.9,0.3-2.8l-12.6-16c-0.7-0.9-1.9-1-2.8-0.3
						c-0.9,0.7-1,1.9-0.3,2.8l12.6,16C45.5,240.9,46.1,241.2,46.7,241.2z"/>
				</g>
				<path class="st14" d="M45.1,239.2c0,1.1,0.9,2,2,2c1.1,0,2-0.9,2-2c0-1.1-0.9-2-2-2C45.9,237.3,45.1,238.1,45.1,239.2z"/>
				<path class="st14" d="M32.7,223.1c0,0.8,0.6,1.4,1.4,1.4c0.8,0,1.4-0.6,1.4-1.4c0-0.8-0.6-1.4-1.4-1.4
					C33.3,221.7,32.7,222.3,32.7,223.1z"/>
				<circle class="st14" cx="110.5" cy="234.9" r="5.1"/>
				<path class="st14" d="M85.7,175.1L85.7,175.1c1.2,0,2.2-1,2.2-2.2l0,0c0-1.2-1-2.2-2.2-2.2l0,0c-1.2,0-2.2,1-2.2,2.2l0,0
					C83.6,174.1,84.6,175.1,85.7,175.1z"/>
				<path class="st23" d="M69.2,130.6c6.4,7.5,16.5,34.9,16.4,34.8c0.7,2,3.7,0.9,3-1.1C88.3,163.3,76.3,137.6,69.2,130.6z"/>
				<path class="st23" d="M96.1,126.6c-3.6,5.1-5.7,31-6.2,36.9c-0.2,2.2,3.2,2.3,3.2,0.1C93.1,157.6,93,131.9,96.1,126.6z"/>
				<g>
					<path class="st23" d="M57.4,143.3c2.9-2.9,0,0.6,0,0.6L52,156l22.5,10.4l-24-9.8C50.6,156.6,54.4,146.2,57.4,143.3z"/>
					<polygon class="st23" points="76.6,167.4 74.6,166.4 75.7,166.9 					"/>
				</g>
				<polygon class="st26" points="52.3,176.7 54.8,178.6 54.3,175.5 57.4,174.7 54.6,173.2 55.9,170.3 53,171.5 51.6,168.6 
					50.7,171.7 47.6,171 49.4,173.6 46.9,175.6 50.1,175.8 50.1,179 				"/>
				<path class="st12" d="M50.9,169.3c0,0.2,0.2,0.4,0.4,0.4c0.2,0,0.4-0.2,0.4-0.4c0-0.2-0.2-0.4-0.4-0.4
					C51.1,168.9,50.9,169,50.9,169.3z"/>
			</g>
			<path class="st12" d="M142.5,146.3c0.8-1.9,0.2-4.1-1.5-5.3l-6.5-4.8c-3.3-2.5-7.6-2.2-10.6,0.7l-21,19.2l3.2,4.4l20.6-19.2
				c1.2-1.1,3.7-2.1,5.1-1.3l9.6,6.7C141.9,146.8,142.4,146.7,142.5,146.3L142.5,146.3z"/>
			<path class="st27" d="M108.5,143.5c0,0.1,0,0.2,0,0.4v17.7h-8.6v-18H108.5z"/>
			
				<rect x="99.6" y="143.5" transform="matrix(-1 -1.224647e-16 1.224647e-16 -1 208.4484 288.8075)" class="st28" width="9.3" height="1.8"/>
			<path class="st29" d="M103,139.5v-1c0-0.4,0.3-0.9,0.7-0.9c0.6-0.1,1,0.3,1,0.9v1c0,0.3,0.2,0.6,0.5,0.6c1.7,0.3,2.9,1.7,3.1,3.4
				h-8.6v-0.1c0-1.6,1.1-2.9,2.6-3.3C102.8,140,103,139.8,103,139.5z"/>
			<path class="st25" d="M98.9,145.9v16.6h10.5v-16.6H98.9z M106,149.2c0-0.7,0.6-1.3,1.3-1.3c0.7,0,1.3,0.6,1.3,1.3v10.7
				c0,0.7-0.6,1.3-1.3,1.3c-0.7,0-1.3-0.6-1.3-1.3V149.2z M102.9,149.2c0-0.7,0.6-1.3,1.3-1.3s1.3,0.6,1.3,1.3v10.7
				c0,0.7-0.6,1.3-1.3,1.3s-1.3-0.6-1.3-1.3V149.2z M99.8,149.2c0-0.7,0.6-1.3,1.3-1.3c0.7,0,1.3,0.6,1.3,1.3v10.7
				c0,0.7-0.6,1.3-1.3,1.3c-0.7,0-1.3-0.6-1.3-1.3V149.2z"/>
			<path class="st17" d="M136.9,139.7c0.3-0.3,5.2-0.6,5.2-0.6v0c3.1-0.5,13.7-10.1,16.7-14.1c2.3-2.9,4.4-16.9,7.9-25.8
				c3.5-8.9,8.2-12.2,9.3-12.6c3.5-1.2,7.2-0.3,8.5,5.7c1.2,6-14.2,35.3-17.6,39.5c-2.6,3.2-17.2,12.5-24.1,12.7l-1.7,0.7
				c-0.5,0.2-0.6,0.8-0.1,1.1l0,0c0,0-2.6,0.3-2.6-0.3s-0.3-0.2-0.7-0.6c-0.3-0.3-0.6-1-0.6-1s0.1-0.6-0.8-1.1
				C135.3,142.6,136.5,140.1,136.9,139.7z"/>
			<path class="st30" d="M179.1,81.8c0,0-3.7-0.8-7.1,3.1c-3.4,3.9-9.2,22-9.2,22l14.3,9.2c0,0,7.8-17.4,7.8-24.3
				C184.9,85.1,180.9,81.8,179.1,81.8z"/>
			<path class="st31" d="M184.9,91.9c-0.4-4.3-1.7-6.9-3.5-8.4c-1.4-1.2-2.2-1.1-2.3-1.1c-7.1,0.2-8,3.8-16.3,24.6
				c1.4-5.3,5.7-19.2,9.3-22.9c1.9-2,4.5-3.2,7.1-2.7l-0.1,0C181.8,81.6,185.2,85.6,184.9,91.9z"/>
			<path class="st5" d="M164.2,110.4c0,0,4.7,1.2,4.1,2c-0.6,0.8-3.7,0-3.7,0s3.9,1.7,3.4,2.4c-0.5,0.7-4.3-0.8-4.3-0.8
				s2.9,1.8,3,2.7c0,0.9-4.2-1-4.2-1s2.4,1.5,2.1,1.9c-0.3,0.4-3.1-0.1-4.3-0.5c-1.2-0.4-0.6-2,0.4-3.3c1-1.3,0.4-1,1.3-2.2
				C162.8,110.3,164.2,110.4,164.2,110.4z"/>
			<g>
				<path class="st17" d="M162.7,52.3c0,0-3.6,5-4.1,8.3c-0.5,3.4-1.1,8.9-1.1,8.9l1.5,0c0,0,1.3,3,1.4,5c0,2,3.2,0.7,5.1,0.6
					c1.9,0,6-1.7,7.4-7.6C174.5,61.8,177.2,51.3,162.7,52.3z"/>
				<path class="st17" d="M176.3,78.3c1.2,2.5-1.3,3-3.9,3.9c-1.8,0.6-3.6,1.1-4.5,1.4c-0.3,0.1-0.7-0.2-0.6-0.5
					c0-1.2-0.3-3.9-0.6-6.1c-0.2-1.3-0.4-2.6-0.5-3.3c0.4-1,3.2-8.5,3-8.1c0,0,0,0,0,0l0.6-1.5L176.3,78.3z"/>
				<path class="st32" d="M157.6,48.9c-0.2,0.3-3,6.3,2.2,8.5c5.1,2.2,6.3-1.2,7.7,0.8c1.4,2-1,5.3,0.1,7.2l1.7,0.3c0,0,0.3-1,1-1
					c0.7,0,1,5.1,2.1,5.1c1.1,0,3.1-4.4,4.1-6.5c1-2.1,2.9-9-1-10.6c-3.9-1.7-5.6-0.3-5.6-2c0-1.7-1.7,0.1-1.7,0.1s-1-1.2-0.4-2.7
					c0.6-1.5-4.2-1.8-5.2,1.1C161.4,52,159.4,45.7,157.6,48.9z"/>
				<path class="st17" d="M168.7,62.8c0,0,0,3.3,0.8,3.3c0.8,0,2.5-2,2.2-4C171.4,60.2,169,60.5,168.7,62.8z"/>
				<path class="st5" d="M169.3,62.5c0,0-0.4,1.3,0.2,1.9c0.6,0.6,1.7-0.9,1.1-2C169.9,61.4,169.4,61.7,169.3,62.5z"/>
				<path class="st32" d="M160.5,61.7l-0.1,0.8c0,0,1.4-0.2,2.2,0.6c0.8,0.8,0.9,0.8,0.9,0.8S163,62.1,160.5,61.7z"/>
				<path class="st32" d="M162.1,64.2c0,0.4-0.3,0.7-0.6,0.8c-0.3,0-0.6-0.3-0.6-0.7c0-0.4,0.3-0.7,0.6-0.8
					C161.8,63.5,162.1,63.8,162.1,64.2z"/>
				<path class="st32" d="M161,71.7c0.5,0,1-0.1,1.3-0.4c0.2-0.1,0.3-0.3,0.4-0.5c0.1-0.2,0.1-0.4,0.2-0.6l0,0
					c0-0.1,0.1-0.2,0.3-0.2c0.1,0,0.2,0.1,0.2,0.3c0,0,0,0,0,0c-0.1,0.3-0.2,0.5-0.3,0.7c-0.2,0.2-0.4,0.4-0.6,0.5
					C162,71.7,161.5,71.7,161,71.7z"/>
				<path class="st32" d="M155.5,55c0,0.3,0.3,0.8,0.4,1c0.9,1.1,2.6,1.3,3.8,1.4c-0.2,0-1.7,0.3-3,0c-1.4-0.3-2.3-1.2-2.5-2.2
					L155.5,55z"/>
				<path class="st5" d="M169.9,74.5c-0.5,0.5-2.3,1.7-3.3,2.5c-0.2-1.8-0.5-3.3-0.5-3.3s1,0.8,3-8.1c0,0,0,0,0,0.1c0,0,0,0,0,0
					C169.2,66.3,170.6,73.7,169.9,74.5z"/>
				<path class="st32" d="M160.3,73.2c0,0-0.2,1.3-0.2,2.1c0,0.8,1.9,1.5,3.6,1c1.7-0.5,4-1.7,4.6-2.3c0.6-0.6,0.8-8.4,0.8-8.4
					l-1.5-0.3c0,0-0.6,5.1-1.3,5.7C165.7,71.8,160.3,73.2,160.3,73.2z"/>
				<path class="st5" d="M161.4,66c-0.1,0.6,0.5,1.1,1.4,1.3c0.9,0.2,1.7-0.1,1.8-0.7c0.1-0.6-0.5-1.1-1.4-1.3
					C162.3,65.2,161.5,65.5,161.4,66z"/>
			</g>
			<g>
				<path class="st33" d="M41.9,142.3c0.1,0,0.2-0.1,0.2-0.2c6.6-21.9,34.3-27.9,34.5-27.9c0.1,0,0.2-0.1,0.2-0.3
					c0-0.1-0.1-0.2-0.3-0.2c-0.3,0.1-28.3,6.1-34.9,28.2C41.6,142.2,41.7,142.3,41.9,142.3C41.9,142.3,41.9,142.3,41.9,142.3z"/>
			</g>
		</g>
		<g>
			<path class="st34" d="M154.3,109C154.3,109,154.3,109,154.3,109c-0.2,0-0.4-0.2-0.4-0.4c0.3-18.6,5.9-27.2,6-27.3
				c0.1-0.2,0.3-0.2,0.5-0.1c0.2,0.1,0.2,0.3,0.1,0.5c-0.1,0.1-5.6,8.6-5.9,26.9C154.6,108.9,154.5,109,154.3,109z"/>
		</g>
		<g>
			<path class="st35" d="M198.9,67.2c-0.9-4.3,0.1-7.5-2.1-8.8c-2.2-1.3-5.3-2.5-8.2-1.7c-0.6,0.2,2.5,0.9,2.5,0.9s1.1,9.9,0.9,12.6
				c-0.2,2.7,0.3,6.4,2,6.8c1.7,0.5,3.6-0.3,4.9-1C200.1,75.4,199.8,71.5,198.9,67.2z"/>
			<path class="st36" d="M221.4,116.4c-2.6-1.1-10.4-14.8-12.8-16.4l-3,7.5c3.3,2.3,3.7,7,8.1,9.4c4.4,2.5,4.6,4.4,5.9,5.7
				c1.3,1.2,2.3-1.4,3.5-2.1c1.2-0.7,4-4.1,4.3-5.2C227.6,114,223.9,117.5,221.4,116.4z"/>
			<path class="st37" d="M205.1,86.5c0,0-8.2,14.8-16.1,10.6l3.4,10.8l8.8,0.8l7.2-15.9L205.1,86.5z"/>
			<path class="st38" d="M202.2,78.7c0,0,4.8-0.1,5.6-1.3c0.8-1.2,0.5-4.6,0-6.4c-0.5-1.8-2-2.3-2.2-3.6c-0.2-1.3,1.7,1.4,1.9,0.8
				c0.2-0.7-1.2-2.6-0.7-3.6c0.5-1,0.7,3.1,1.5,2.8c0.8-0.3-1.1-5.6,0-5.3c1.1,0.4,0.4,4.8,1.3,4.8c0.4,0-0.2-4.5,0.4-4.5
				c0.6,0,0.3,4.4,0.7,4.4c0.7,0,0.4-3.6,0.9-3c0.5,0.5,0.1,3.6-0.2,6.2c-0.3,2.7,2.8,11.7-0.3,13c-3.1,1.3-10.1,0.8-10.1,0.8
				L202.2,78.7z"/>
			<path class="st39" d="M187.2,81.7c0,0-2.2-5.8,6.6-5.7c3.5,0,10.4,2.6,10.4,2.6s-1.8,1.3-1.3,3.2c0.5,1.9,0.7,2.9,0.7,2.9
				S187.6,85.9,187.2,81.7z"/>
			<path class="st40" d="M218,58.3c0,0,4.9-1.5,7,1.9c2.1,3.4-1.2,15.3-0.1,18.2c1.1,2.9,2.4,2.4,1.8,0c0,0,1.9,1.5,1.2,3.4
				c-0.7,1.9-1.9,2.5-1.9,2.5h2.6c0,0,0.3,2.3-2.6,3.4c-2.9,1.1-5.1,0.9-6.3-3.2c-1.2-4,0.6-5.4,0.6-8.4c0,0-0.6,3.4-2.3,2.6
				c-1.7-0.8-0.8-2.8,0-2.8c0,0,0.5,1.9,1-0.3c0.5-2.2,1.2-9.9,1.2-11.8c0-1.9-1.8-2.2-1.8-2.2S216.3,58.3,218,58.3z"/>
			<path class="st17" d="M207.2,73.1c0,0,2.6,6.7,0.5,9.9c-2,3.2,1.6,2.1,5,0c3.4-2.1,3.6-5.2,3.6-6.3c0-1.2-3.9-8-3.9-8L207.2,73.1
				z"/>
			<path class="st5" d="M212.4,68.7l-5.3,4.5c0,0,0.6,1.5,0.9,3.4c0.7-0.5,1.4-1.1,2-1.8c1.1-1.2,2.4-2.5,3.3-4.2
				C212.8,69.4,212.4,68.7,212.4,68.7z"/>
			<path class="st36" d="M175.7,108c0,0,3.3,6.7,6.1,8.6c2.8,1.9,1.9-4.2,1.9-4.2s-4-8.1-4.8-8.1C178.2,104.3,175.1,104.6,175.7,108
				z"/>
			<g>
				<g>
					<path class="st17" d="M202,224c0,0-2.9,12.8-2.8,16.1c0.2,3.3,0.5,4.9,0.5,4.9l-12.8,0.3c0,0,6-0.8,7.2-3.8
						c1.3-3,1.7-18.8,1.7-18.8L202,224z"/>
					<path class="st41" d="M192.6,243c0,0.3,0.4,1.1,0.9,1.3c0.8,0.3,4.2-1.6,6-2.3l0.5,3.6c-1.4,1-4.2,0.2-7.2,1.1
						c-3,0.9-7.1-1.3-7.1-1.3s2.7-0.5,5.3-1.4C191.5,243.7,192.1,243.4,192.6,243z"/>
				</g>
				<g>
					<path class="st17" d="M221.3,225.2c0,0-0.9,12.2-0.3,15.2c0.6,3,1.2,4.4,1.2,4.4l-12.6,2.4c0,0,5.8-1.7,6.5-4.7
						c0.8-3-1.2-17.5-1.2-17.5L221.3,225.2z"/>
					<path class="st41" d="M214.9,244.2c0,0.3,0.5,0.9,1.1,1c0.9,0.1,3.9-2.2,5.6-3.1l1,3.2c-1.2,1.1-4.1,0.9-6.9,2.2
						c-2.8,1.3-7.2,0-7.2,0s2.6-0.9,5-2.2C214,245,214.5,244.6,214.9,244.2z"/>
				</g>
				<path class="st42" d="M189,135.2l5.7-2.9l9.2,24.7l-0.9,41.1c2.3,7.8-3.1,40.4-3.1,40.4l-5.5-0.6
					C199.3,210.3,189,135.2,189,135.2z"/>
				<path class="st43" d="M206.6,181.1l-14.2-46.5l10.3-10.2c0,0,11.2,9.4,13.1,16.1c1.9,6.7,0.7,33.9,0.6,37.5
					c-0.1,3.6,3.8,13.5,5.2,16.7c1.3,2.9,0.5,34.5,0,43.7l-6.2,0.3c-1.1-7.9-6.9-43.2-6.8-47.4C208.8,186.8,206.6,181.1,206.6,181.1
					z"/>
				<path class="st28" d="M213.4,135c3.7,5,4.5,7.2,4.2,29.4c-0.1,4.5-0.3,14-0.3,14c0,4.2,5.7,17.5,5.1,16c1.7,4.2-0.1,37.7-0.6,44
					c0.1-3.9,0.6-40.4-0.6-43.5c0-0.1-5-8.1-5.3-19.3c1.2-33.7,0.4-35.1-3.1-40.2c-2.8-4.1-6.4-7.6-10-11
					C206.4,127.2,210.6,131.3,213.4,135z"/>
			</g>
			<g>
				<path class="st17" d="M206.7,55.6c0,0-3.6,0.5-4.6,2.2c-1,1.7-1.3,5.7-2.3,6.7c-1,0.9-1.8,1.1-1.8,1.1s-0.3,0.4,0.7,0.9
					c0.9,0.5,0.2,1-0.4,1c-0.6,0-0.1,1.1,0.3,1.3c0,0-0.6,0.2-0.5,0.7c0.1,0.6,0.4,0.7,0.4,0.7s0,0.7-0.3,1.4
					c-0.3,0.7,0.4,2.8,5.1,2c0,0,8.2-1.8,8.7-3.8c0.5-2,2.5-8.7-0.1-11.4C209.2,55.8,206.7,55.6,206.7,55.6z"/>
				<path class="st5" d="M205.3,66.8c0,0.5-0.8,0.9-1.9,0.8c-1,0-1.8-0.4-1.8-0.9c0-0.5,0.8-0.9,1.9-0.8
					C204.5,65.9,205.3,66.4,205.3,66.8z"/>
				<path class="st44" d="M199.5,64.1c0,0,0.9,1,3.3,0.3L199.5,64.1z"/>
				<path class="st44" d="M201.2,62.6c0,0,0.9-0.5,1.6-0.5c0.7,0,1.4,0.3,1.3,0.6c0,0-0.8-0.4-1.4-0.3c-0.6,0.1-0.9,0.5-1.2,0.5
					C201.4,62.9,201.2,62.6,201.2,62.6z"/>
			</g>
			<path class="st45" d="M208,51.6c0,0-3.5,0.5-5.2,2.2c-1.7,1.7-0.8,4.3-0.8,4.3s1.5-3,2.8,0.1c1.3,3.1,0.7,4.6,2.8,5.7
				s2.7-1.9,3.9,0c1.3,1.9-1.6,6.8,1.4,6.8c3,0,7.4-2.8,7.4-5.9c0-3.1-2.8-2.7-2.8-7C217.4,53.5,212.2,51.6,208,51.6z"/>
			<path class="st39" d="M214,77.3l2.2-1.1c0,0,4.6,5,5.6,11.6c1,6.6-4,24-4,28.4c0,4.4,3.6,6.6,2.2,9.2c-1.3,2.6-4.8,3.5-3,5.2
				c1.7,1.7,2.2,2,1.4,3.9c-0.7,1.9-2.5,2.9-2.5,4s-23.2-3.8-28.4-1.9c0,0-2-7.1,0-10.1c2-2.9,11.4-21,12.3-27.8
				c0.9-6.9,5.4-17.3,9-19.1C212.5,77.9,214,77.3,214,77.3z"/>
			<path class="st46" d="M217.7,116.3c0-4.4,5-21.9,4-28.4c-0.3-2.2-1-4.2-1.9-5.9c-0.1,0.6-0.1,1.1-0.1,1.1s-13.1,35-20.3,36.2
				c-4,0.6-7.4,2.1-9.6,3.3c-0.4,0.8-0.9,1.6-1.2,2.2c2.2,0.4,6.1,1.1,8.7,1.1c3.9,0,6.6-3.2,6.6-3.2s-1.4,8,0.3,9.8
				c1.2,1.2,2.3,4,2.9,5.4c4.9,0.7,8.8,1.2,8.8,0.8c0-1.1,1.8-2.2,2.5-4c0.7-1.9,0.3-2.1-1.4-3.9c-1.7-1.7,1.7-2.6,3-5.2
				C221.3,122.9,217.7,120.7,217.7,116.3z"/>
			<path class="st17" d="M183,108.5c0,0,0.5,4.8,3.7,4.8s17.6-2.2,19.3,1.5c1.6,3.7-1.3,8,1.2,12.4c2.5,4.4,1.5,6.6,2,8.3
				c0.5,1.7,3.6-0.6,5-0.6c1.4,0,3.8-0.9,4.7-1.8c0.9-0.9,2.5-2.9,1.3-2.9s-3.6,2.6-5.3,0.4c-1.6-2.2-1.2-18-2.5-20.6
				c-1.2-2.6-18-8.3-20.6-7.4C189.2,103.4,183,108.5,183,108.5z"/>
			<path class="st17" d="M209.9,63.7c0,0,1.3-2.7,1.9-2.1c0.6,0.6,0.8,4.7-1.3,5C208.4,66.9,209.9,63.7,209.9,63.7z"/>
			<path class="st5" d="M210,64c0,0,0.7-1.5,1-1.1c0.3,0.4-0.1,2.7-0.6,2.7C210,65.6,209.9,64.8,210,64z"/>
			<path class="st36" d="M200.9,80c0,0,4.8-0.1,5.6-1.3c0.8-1.2,0.5-4.6,0-6.4c-0.5-1.8-2-2.3-2.2-3.6c-0.2-1.3,1.7,1.4,1.9,0.8
				c0.2-0.7-1.2-3.4-0.7-4.4c0.5-1,1,3,1.4,2.9c0.8-0.3-1-5,0.1-4.5c0.5,0.2,0.8,4.4,1.1,4.4c0.4,0-0.1-3.5,0.6-4.1
				c0.5-0.4,0.3,4.4,0.7,4.4c0.7,0,0.4-3.6,0.9-3c0.5,0.5,0.1,3.6-0.2,6.2c-0.3,2.7,2.8,11.7-0.3,13c-3.1,1.3-10.1,0.8-10.1,0.8
				L200.9,80z"/>
			<path class="st47" d="M186.2,79.6c0,0-3.7,11.3-3.7,15.7s-4.3,7-3.4,12c0.9,4.9,13.9,9.8,17.4,8.1c3.5-1.7,10.6-12.1,10.6-12.1
				s-11.9,1.5-9.6-3.6c2.4-5.1,2.7-13.1,1.9-16.3C198.7,80.2,189.8,74.5,186.2,79.6z"/>
			<path class="st48" d="M215.4,79.6c0,0-3.8,1.1-6.5,7.9c-2.7,6.8-8.7,21.8-13.4,23.7c-4.8,1.8-15-2.4-15-2.4s-2.3,2.8-1.5,6.3
				c0.8,3.5,9.7,7.5,16.5,7.5c6.9,0,20-15.5,22.7-24.5C221,89,221.5,78.7,215.4,79.6z"/>
			<g>
				<path class="st17" d="M194.7,72.8c0,0-1.3,5.1,0.2,6.6c1.5,1.5-5.9,2.2-5.9-1.6c0-1.3,1-7.1,1-7.1L194.7,72.8z"/>
				<path class="st5" d="M189.3,75.3c1.2,0.5,3.1,0.8,4.9,0.8c0.1-1.7,0.5-3.3,0.5-3.3l-4.7-2.1C190,70.7,189.6,73.2,189.3,75.3z"/>
				<path class="st17" d="M194.9,58.7c1,0.7,2.9,2.5,2.7,4c-0.2,1.6,1.1,3.6,0.6,6.8c-0.5,3.2-3.7,4.9-4.6,4.8
					c-3.7-0.6-5.3-2.5-6.7-4.6c-1.4-2.2-4.5-2.3-1.2-7.9S192.9,57.5,194.9,58.7z"/>
				<path d="M195,66.6c0.6,0.5,1.1,0.6,1.2,0.6c-0.2,0.4-0.4,0.8-0.8,1.4c0.1-0.4,0.2-0.7,0.3-1.1c-0.9-0.2-1.5-1-1.6-1.9
					C194.6,66.2,194.7,66.3,195,66.6z"/>
				<path d="M193.5,65.7c-0.4-0.6-1.3-1.1-1.9-1c-0.7,0.2-0.8,0.8-1.5,1c0.7,0.2,1.1-0.5,1.7-0.6C192.2,64.9,192.9,65.3,193.5,65.7z
					"/>
				<path d="M195.2,65.5c0.4-0.4,1-0.9,1.6-0.8c0.5,0.1,0.6,0.5,1.1,0.6c-0.6,0.2-0.9-0.3-1.3-0.3C196.2,64.9,195.7,65.2,195.2,65.5
					z"/>
				<path d="M192.2,62.7c-0.5-0.1-1,0.3-1.3,0.7c0.9-0.6,1.4-0.5,1.9-0.1c0.5,0.4,0.6,0.6,0.8,0.5C193.8,63.5,192.9,62.8,192.2,62.7
					z"/>
				<path d="M196.5,63.2c0.3,0,0.6,0.2,0.9,0.3c-0.6-0.8-1.2-0.9-1.7,0.1c-0.1,0.2,0.1,0.3,0.2,0.2
					C195.8,63.8,196.4,63.2,196.5,63.2z"/>
				<path class="st5" d="M196.7,67.3c0,0.6,0.7,1.1,1.7,1.1c0-0.8-0.1-1.5-0.2-2.2C197.4,66.3,196.7,66.8,196.7,67.3z"/>
			</g>
			<path class="st34" d="M191.1,57.7c0,0-4.3,7.4-1.5,14.2c1,2.5,3.8,6.3,3.8,6.3s-6.9,0.1-8.4,0.6l-0.7-6.4l-0.9,6.2
				c0,0-1.4,0.5-5.4-1.3c-3.9-1.8,2.6-7.8,3.3-12.2C182,60.6,186.6,54.4,191.1,57.7z"/>
			<path class="st35" d="M194.3,58.4c0,0-2.6,4.3-6.2,4.3c-3.6,0-4.2,1.3-4.2,2.4c0,1,1.2,1.9,2.3,1.2c1.1-0.7,1.2-1.2,1.2-1.2
				s0.4,1.4-0.5,2.3c-0.9,0.9-3.6,1.5-4.4-0.9c-0.5-1.4-0.3-3.2,0.5-4.5c0.4-0.6,0.9-0.8,1.5-1.1c1-0.4,1.9-0.9,2.8-1.6
				c0.4-0.3,0.9-0.7,1.3-1.1c0.4-0.4,0.7-0.8,1.2-1.1c0.4-0.2,0.9-0.4,1.3-0.5C192.5,56.6,193.6,57.3,194.3,58.4z"/>
			<path class="st49" d="M186.7,62.9L186.7,62.9c-0.3-0.2-0.7-0.1-0.9,0.2l0,0c-0.5,0.5-1.3,0.2-1.4-0.5l0,0c0-0.3-0.3-0.6-0.6-0.7
				l0,0c-0.7-0.2-0.8-1.1-0.2-1.4l0,0c0.3-0.2,0.4-0.5,0.3-0.9l0,0c-0.2-0.7,0.5-1.2,1.1-0.9l0,0c0.3,0.2,0.7,0.1,0.9-0.2l0,0
				c0.5-0.5,1.3-0.2,1.4,0.5l0,0c0,0.3,0.3,0.6,0.6,0.7l0,0c0.7,0.2,0.8,1.1,0.2,1.4l0,0c-0.3,0.2-0.4,0.5-0.3,0.9l0,0
				C188.1,62.6,187.4,63.2,186.7,62.9z"/>
			<path class="st28" d="M185.7,61.9L185.7,61.9c-0.1-0.2-0.3-0.2-0.5-0.2l0,0c-0.3,0.1-0.6-0.3-0.5-0.6l0,0
				c0.1-0.2,0.1-0.4-0.1-0.5l0,0c-0.3-0.3-0.1-0.7,0.3-0.7l0,0c0.2,0,0.3-0.1,0.4-0.3l0,0c0.1-0.3,0.6-0.4,0.7-0.1l0,0
				c0.1,0.2,0.3,0.2,0.5,0.2l0,0c0.3-0.1,0.6,0.3,0.5,0.6l0,0c-0.1,0.2-0.1,0.4,0.1,0.5l0,0c0.3,0.3,0.1,0.7-0.3,0.7l0,0
				c-0.2,0-0.3,0.1-0.4,0.3l0,0C186.4,62.2,185.9,62.2,185.7,61.9z"/>
			<path class="st5" d="M193,67.9c0,0.5-0.6,0.9-1.4,0.9c-0.8,0-1.4-0.4-1.4-0.9c0-0.5,0.6-0.9,1.4-0.9C192.4,67,193,67.4,193,67.9z
				"/>
			<g>
				<path d="M195.1,70.6c-1.1,0-2.7-0.4-2.8-0.4c-0.1,0-0.1-0.1-0.1-0.1c0-0.1,0.1-0.1,0.2-0.1c0,0,2.4,0.5,3.2,0.3
					c0.1,0,0.1,0,0.2,0.1c0,0.1,0,0.1-0.1,0.1C195.5,70.6,195.3,70.6,195.1,70.6z"/>
			</g>
			<path class="st50" d="M185.9,83c0,0-2.2-5.8,6.6-5.7c3.5,0,12.6,1.6,12.6,1.6s-2.8,2.2-2.3,4.1c0.5,1.9,0.6,2.9,0.6,2.9
				S186.3,87.2,185.9,83z"/>
			<path class="st51" d="M199.4,77.8c-4.4-0.8-12.3-2-13.7,2.3c-0.3,1-0.2,2,0.1,2.9c-2-8.4,13.4-4.4,16.3-4.4l2.9,0.3
				C203.3,78.5,201.3,78.1,199.4,77.8z"/>
			<path class="st17" d="M217.2,107.3c0,0,0.3-0.6,0.5-1.3c0.2-0.8-0.7-2.8-2.6-3.8c-2-0.9-2.5-1.2-2.7-0.6
				c-0.6,1.4,2.5,2.6,2.2,2.9c-0.3,0.3-3.2-2.6-4-1.5c-0.8,1.1,2.8,2.1,2.6,3c-0.2,0.9-3.5-2.2-3.8-1.2c-0.3,1.1,3.8,2.8,3,3.3
				s-3-2.5-3.4-1.1c-0.4,1.4,1.7,3,2.4,3.7c0.9,0.9,2.8,0.4,3.1-0.1C215.4,109.4,217.2,107.3,217.2,107.3z"/>
			<path class="st17" d="M181.7,103.5c-1-0.1-2.1-0.2-3.1-0.3c-2.3-0.3-3.2,1.9-3.2,1.9c-0.1,0.7-0.2,2.6,0.9,3.6
				c1.1,1,5.4,1,6.2,0.8c0.8-0.2,6.5-1.3,6.4-2.6c0,0-4.9,1.3-5,0.7c0-0.1,4.4-0.4,5.1-1c0.5-0.5-3.3-0.3-5-0.1
				c1.6-0.3,5.3-0.7,5.2-1c-0.1-0.4-3.2-0.3-4.9-0.2c0,0,0,0,0-0.1c1.7-0.2,4.4-0.1,4.1-0.6C188.2,104.4,181.7,103.5,181.7,103.5z"
				/>
			<path class="st17" d="M182.2,101.2c0,0-5,1.1-5.4,2.3c-0.4,1.2,1.6,0.9,1.6,0.9s1-1.6,2.1-1.6S183.2,101.7,182.2,101.2z"/>
			<path class="st52" d="M209.9,82.2c0,0-1.8,0.7-1.2,1.2c0.5,0.5,1.3,0.8,1.6,0C210.5,82.6,209.9,82.2,209.9,82.2z"/>
		</g>
	</g>
</g>
</svg>
