<?xml version="1.0" encoding="utf-8"?>
<!-- Generator: Adobe Illustrator 24.0.1, SVG Export Plug-In . SVG Version: 6.00 Build 0)  -->
<svg version="1.1" id="Layer_1" xmlns="http://www.w3.org/2000/svg" xmlns:xlink="http://www.w3.org/1999/xlink" x="0px" y="0px"
	 viewBox="0 0 300 300" style="enable-background:new 0 0 300 300;" xml:space="preserve">
<style type="text/css">
	.st0{fill:#B982B0;}
	.st1{fill:#65C8D0;}
	.st2{fill:#B5A4E2;}
	.st3{fill:#8968E2;}
	.st4{fill:#DA7AB2;}
	.st5{fill:#0C5769;}
	.st6{fill:#0C7997;}
	.st7{fill:#B959A7;}
	.st8{fill:url(#SVGID_1_);}
	.st9{fill:url(#SVGID_2_);}
	.st10{fill:url(#SVGID_3_);}
	.st11{fill:#A72F91;}
	.st12{fill:url(#SVGID_4_);}
	.st13{fill:#5DB9F4;}
	.st14{fill:url(#SVGID_5_);}
	.st15{fill:#AA669F;}
	.st16{fill:url(#SVGID_6_);}
	.st17{fill:#FD5E5A;}
	.st18{fill:#FC7575;}
	.st19{fill:#47545C;}
	.st20{fill:url(#SVGID_7_);}
	.st21{fill:#095270;}
	.st22{fill:#ACFCDD;}
	.st23{fill:#9DBAC6;}
	.st24{fill:#3A758D;}
	.st25{fill:url(#SVGID_8_);}
	.st26{opacity:0.23;fill:url(#SVGID_9_);}
	.st27{fill:#40001B;}
	.st28{fill:#FC8282;}
	.st29{fill:#FC4444;}
	.st30{fill:#F7ADEB;}
	.st31{fill:#FDEBFA;}
	.st32{fill:#FD8F8F;}
	.st33{fill:#D4145A;}
	.st34{fill:#6A0A2D;}
	.st35{fill:#210075;}
	.st36{fill:#F266A1;}
	.st37{fill:#F7A3C7;}
	.st38{fill:#00114D;}
	.st39{fill:#172866;}
	.st40{fill:#F14E76;}
	.st41{fill:#FFF7CF;}
	.st42{fill:#26084C;}
	.st43{fill:#21005F;}
	.st44{fill:#2C1F67;}
	.st45{fill:#464A7F;}
	.st46{fill:#0E1B29;}
	.st47{fill:#9D5659;}
	.st48{fill:#F6A272;}
	.st49{fill:#B97A56;}
	.st50{fill:#ED1C24;}
	.st51{fill:#5E007E;}
	.st52{fill:#420023;}
	.st53{fill:#FC4F4F;}
	.st54{fill:#7E0200;}
	.st55{fill:#3F0100;}
	.st56{fill:#7D00A8;}
	.st57{fill:#1B3753;}
	.st58{fill:#AF82FF;}
	.st59{fill:#DFCDFF;}
	.st60{fill:#D17376;}
	.st61{fill:#EDC7C8;}
</style>
<g>
	<path class="st0" d="M158.7,99.3l-6.4,0.3c0,0,6.6,23.5,4.3,25.9l5.7,1.7L158.7,99.3z"/>
	<g>
		<g>
			<g>
				<g>
					<path class="st1" d="M246.2,221.1c1.4,1.5,3.9,2.4,6.8,2.3c2.9-0.1,5.3-1.2,6.6-2.8c-1.4-1.5-3.9-2.4-6.8-2.3
						C250,218.4,247.5,219.5,246.2,221.1z"/>
					<path class="st1" d="M201,145.5c2.7,1.6,4.9,5.1,5.5,9.4c0.6,4.3-0.5,8.2-2.7,10.6c-2.7-1.6-4.9-5.1-5.5-9.4
						C197.7,151.8,198.8,147.9,201,145.5z"/>
					<path class="st1" d="M217.1,160.3c0.3,2.5-0.7,5.5-3,8c-2.3,2.5-5.3,3.7-7.8,3.5c-0.3-2.5,0.7-5.5,3-8
						C211.7,161.3,214.6,160.1,217.1,160.3z"/>
					<path class="st1" d="M206.4,172.8c-2.1,1.4-5.3,1.7-8.5,0.6c-3.2-1-5.6-3.2-6.5-5.5c2.1-1.4,5.3-1.7,8.5-0.6
						C203.1,168.3,205.5,170.5,206.4,172.8z"/>
					<path class="st1" d="M209,181.9c-2.1,1.4-5.3,1.7-8.5,0.6c-3.2-1-5.6-3.2-6.5-5.5c2.1-1.4,5.3-1.7,8.5-0.7
						C205.7,177.4,208.1,179.6,209,181.9z"/>
					<path class="st1" d="M212.3,193.1c-2.1,1.4-5.3,1.7-8.5,0.6c-3.2-1-5.6-3.2-6.5-5.5c2.1-1.4,5.3-1.7,8.5-0.6
						C209,188.6,211.4,190.8,212.3,193.1z"/>
					<path class="st1" d="M214.5,203.2c-2.1,1.4-5.3,1.7-8.5,0.6c-3.2-1-5.6-3.2-6.5-5.5c2.1-1.4,5.3-1.7,8.5-0.6
						C211.2,198.7,213.6,200.9,214.5,203.2z"/>
					<path class="st1" d="M214.5,202.3c2.1,1.4,5.3,1.7,8.5,0.6c3.2-1,5.6-3.2,6.5-5.5c-2.1-1.4-5.3-1.7-8.5-0.6
						C217.8,197.8,215.4,200,214.5,202.3z"/>
					<path class="st1" d="M220.1,169.9c0.3,2.5-0.7,5.5-3,8c-2.3,2.5-5.3,3.7-7.8,3.5c-0.3-2.5,0.7-5.5,3-8
						C214.6,171,217.6,169.7,220.1,169.9z"/>
					<path class="st1" d="M223.4,180.8c0.3,2.5-0.7,5.5-3,8c-2.3,2.5-5.3,3.7-7.8,3.5c-0.3-2.5,0.7-5.5,3-8
						C218,181.9,220.9,180.6,223.4,180.8z"/>
					<g>
						<path class="st1" d="M211.5,245.8c2.3,8.5,4.1,17.2,5.4,25.9l2.7,0.2c-1.4-9.1-3.4-18.1-6-26.8c-4-13.6-9.3-26.7-15.9-39
							c-3.3-6.1-6.9-12.1-10.7-17.9c-3.9-5.7-8-11.2-12.4-16.5c-4.4-5.3-9-10.3-13.9-15c-4.9-4.7-9.9-9.2-15.4-13.1L145,144
							c5.4,4,10.4,8.6,15.2,13.3c4.8,4.8,9.3,9.9,13.6,15.2c4.3,5.3,8.3,10.9,12.1,16.6c3.7,5.8,7.2,11.7,10.4,17.9
							C202.6,219.3,207.7,232.3,211.5,245.8z"/>
						<path class="st1" d="M125.3,125.8c0,4.7,2.5,10.2,7,14.3c4.5,4.1,10,5.8,14.2,4.8c0-4.7-2.5-10.2-7-14.3
							C135,126.5,129.6,124.9,125.3,125.8z"/>
						<path class="st1" d="M158,124.6c-3.4,2.9-5.8,8.5-6,14.9c-0.1,6.4,2,12.1,5.4,15.1c3.4-2.9,5.8-8.5,6-14.9
							C163.5,133.3,161.3,127.7,158,124.6z"/>
						<path class="st1" d="M176.3,136.7c-4,1.8-7.7,6.5-9.4,12.6c-1.7,6.1-1,12.2,1.5,16.1c4-1.8,7.7-6.5,9.4-12.6
							C179.5,146.6,178.8,140.6,176.3,136.7z"/>
						<path class="st1" d="M188.3,150.6c-4,1.8-7.7,6.5-9.4,12.6c-1.7,6.1-1,12.2,1.5,16.1c4-1.8,7.7-6.5,9.4-12.6
							C191.5,160.6,190.7,154.6,188.3,150.6z"/>
						<path class="st1" d="M202.2,165.2c-4.3,0.6-9,4.1-12,9.6c-3.1,5.5-3.8,11.5-2.4,16c4.3-0.6,9-4.1,12-9.6
							C202.9,175.7,203.6,169.6,202.2,165.2z"/>
						<path class="st1" d="M211.4,182.7c-3.9-0.5-8.6,1.4-12.4,5.3c-3.8,4-5.7,9-5.4,13.2c3.9,0.5,8.6-1.4,12.4-5.3
							C209.8,191.9,211.7,186.9,211.4,182.7z"/>
						<path class="st1" d="M218.2,193.7c-3.9-0.5-8.6,1.4-12.4,5.3c-3.8,4-5.7,9-5.4,13.2c3.9,0.5,8.6-1.4,12.4-5.3
							C216.7,203,218.6,198,218.2,193.7z"/>
						<path class="st1" d="M221.5,209.5c-3.3-0.4-7.4,1.2-10.6,4.6c-3.3,3.4-4.9,7.7-4.6,11.4c3.3,0.4,7.4-1.2,10.6-4.6
							C220.1,217.4,221.7,213.1,221.5,209.5z"/>
						<path class="st1" d="M224.5,225.9c-2.3-1.7-5.9-2.2-9.5-1c-3.6,1.2-6.4,3.7-7.5,6.5c2.3,1.7,5.9,2.2,9.5,1
							C220.6,231.2,223.4,228.7,224.5,225.9z"/>
						<path class="st1" d="M225.2,239.3c-1.4-1.9-4-3.3-7-3.4c-3-0.1-5.7,1-7.2,2.9c1.4,1.9,4,3.3,7,3.4
							C221.1,242.2,223.7,241.1,225.2,239.3z"/>
						<path class="st1" d="M130.8,161.6c3.5,2.8,9.1,3.8,14.8,2.2c5.7-1.6,10.1-5.4,11.9-9.7c-3.5-2.8-9.1-3.8-14.8-2.2
							C137,153.5,132.6,157.3,130.8,161.6z"/>
						<path class="st1" d="M141.7,173.1c3.5,2.8,9.1,3.8,14.8,2.2c5.7-1.6,10.1-5.4,11.9-9.7c-3.5-2.8-9.1-3.8-14.8-2.2
							C148,165,143.5,168.8,141.7,173.1z"/>
						<path class="st1" d="M153.3,187.1c3.5,2.8,9.1,3.8,14.8,2.2c5.7-1.6,10.1-5.4,11.9-9.7c-3.5-2.8-9.1-3.8-14.8-2.2
							C159.5,179,155.1,182.8,153.3,187.1z"/>
						<path class="st1" d="M166.8,196.9c2.9,2.3,7.4,3.1,12,1.8c4.6-1.3,8.2-4.4,9.7-7.9c-2.9-2.3-7.4-3.1-12-1.8
							C171.8,190.3,168.3,193.4,166.8,196.9z"/>
						<path class="st1" d="M176.8,206.1c2.3,1.9,6,2.7,9.7,1.6c3.7-1.1,6.6-3.6,7.8-6.5c-2.3-1.9-6-2.7-9.7-1.6
							C180.8,200.6,177.9,203.2,176.8,206.1z"/>
						<path class="st1" d="M182.3,217.2c2.3,1.9,6,2.7,9.7,1.6c3.7-1.1,6.6-3.6,7.8-6.5c-2.3-1.9-6-2.7-9.7-1.6
							C186.4,211.7,183.5,214.3,182.3,217.2z"/>
						<path class="st1" d="M188.5,227.4c1.9,2,5.1,3.2,8.8,2.9c3.6-0.3,6.7-2.1,8.2-4.4c-1.9-2-5.1-3.2-8.8-2.9
							C193.1,223.3,190.1,225,188.5,227.4z"/>
						<path class="st1" d="M194.4,240c2.2,0.9,5.2,0.5,8-1.2c2.8-1.7,4.6-4.4,5-6.9c-2.2-0.9-5.2-0.5-8,1.2
							C196.6,234.8,194.8,237.5,194.4,240z"/>
						<path class="st1" d="M201.3,247.8c1.8,0.3,4-0.4,5.9-2.2c1.9-1.7,2.9-4,2.9-6c-1.8-0.3-4,0.4-5.9,2.2
							C202.3,243.6,201.3,245.9,201.3,247.8z"/>
						<path class="st1" d="M206.1,250.1c1.2,0.3,2.6-0.1,3.7-1.2c1.1-1.1,1.7-2.5,1.6-3.8c-1.2-0.3-2.6,0.1-3.7,1.2
							C206.6,247.4,206,248.8,206.1,250.1z"/>
						<path class="st1" d="M207.4,253.8c1.2,0.3,2.6-0.1,3.7-1.2c1.1-1.1,1.7-2.5,1.6-3.8c-1.2-0.3-2.6,0.1-3.7,1.2
							C207.9,251.1,207.3,252.5,207.4,253.8z"/>
					</g>
					<path class="st1" d="M211.7,192.6c2.3,9.3,4.1,18.8,5.3,28.3c0.6,4.8,1.1,9.5,1.4,14.3c0.3,4.8,0.5,9.6,0.5,14.4
						c0,7.4-0.4,14.9-1.3,22.2h2c0.8-7.4,1.2-14.8,1-22.3c0-4.8-0.3-9.7-0.7-14.5c-0.4-4.8-1-9.6-1.6-14.4c-1.4-9.6-3.3-19-5.7-28.4
						c-1.2-4.7-2.5-9.3-4-13.9c-1.5-4.6-3-9.2-4.8-13.7l-0.6,0.2c1.7,4.5,3.2,9.1,4.6,13.7C209.3,183.3,210.6,187.9,211.7,192.6z"/>
					<path class="st1" d="M213.2,271.9c0.5-1,1.1-2.1,1.6-3.1c5.1-9.6,10.9-18.8,17-27.8c6.1-9,12.6-17.8,19.5-26.2l-0.1-0.1
						c-7.1,8.3-13.7,16.9-20,25.8c-6.3,8.9-12.3,18-17.6,27.6c-0.7,1.3-1.4,2.5-2.1,3.8H213.2z"/>
					<path class="st1" d="M258.1,203.4c-2.3,0.2-4.6,1.7-6.1,4.2c-1.5,2.5-1.7,5.2-0.8,7.3c2.3-0.2,4.6-1.7,6.1-4.2
						C258.7,208.3,258.9,205.5,258.1,203.4z"/>
					<path class="st1" d="M241.3,208.6c-0.9,1.8-1,4.5,0.1,7.2c1,2.7,2.9,4.6,4.8,5.4c0.9-1.8,1-4.5-0.1-7.2
						C245,211.3,243.1,209.3,241.3,208.6z"/>
					<path class="st1" d="M240.7,228.4c1.5,1.3,4.2,2,7,1.6c2.8-0.4,5.2-1.7,6.3-3.4c-1.5-1.3-4.2-2-7-1.6
						C244.2,225.4,241.8,226.7,240.7,228.4z"/>
					<path class="st1" d="M233.9,237.1c1.5,1.3,4.2,2,7,1.6c2.8-0.4,5.2-1.7,6.3-3.4c-1.5-1.3-4.2-2-7-1.6
						C237.4,234.1,235,235.5,233.9,237.1z"/>
					<path class="st1" d="M229.3,244.1c1.5,1.3,4.2,2,7,1.6c2.8-0.4,5.2-1.7,6.3-3.4c-1.5-1.3-4.2-2-7-1.6
						C232.8,241.1,230.4,242.4,229.3,244.1z"/>
					<path class="st1" d="M224.2,251.8c1.5,1.3,4.2,2,7,1.6c2.8-0.4,5.2-1.7,6.3-3.4c-1.5-1.3-4.2-2-7-1.6
						C227.7,248.8,225.3,250.1,224.2,251.8z"/>
					<path class="st1" d="M235.4,216.1c-0.9,1.8-1,4.5,0.1,7.2c1,2.7,2.9,4.6,4.8,5.4c0.9-1.8,1-4.5-0.1-7.2
						C239.1,218.8,237.2,216.8,235.4,216.1z"/>
					<path class="st1" d="M229.7,223.9c-0.9,1.8-1,4.5,0.1,7.2c1,2.7,2.9,4.6,4.8,5.4c0.9-1.8,1-4.5-0.1-7.2
						C233.4,226.5,231.6,224.6,229.7,223.9z"/>
					<path class="st1" d="M224.3,231.7c-0.9,1.8-1,4.5,0.1,7.2c1,2.7,2.9,4.6,4.8,5.4c0.9-1.8,1-4.5-0.1-7.2
						C228.1,234.3,226.2,232.4,224.3,231.7z"/>
					<path class="st1" d="M219.1,239.3c-0.9,1.8-1,4.5,0.1,7.2c1,2.7,2.9,4.6,4.8,5.4c0.9-1.8,1-4.5-0.1-7.2
						C222.9,242,221,240,219.1,239.3z"/>
				</g>
			</g>
			<g>
				<path class="st2" d="M67.3,215.6c-1.1,1.1-3,1.8-5.2,1.7c-2.2-0.1-4.1-0.9-5.1-2.1c1.1-1.1,3-1.8,5.2-1.7
					C64.5,213.5,66.4,214.4,67.3,215.6z"/>
				<path class="st2" d="M155.2,169.5c-4.4,2.4-8.4,5.2-12.4,8.2c-4,3-7.7,6.2-11.3,9.6c-3.6,3.4-7,7-10.3,10.8
					c-3.2,3.8-6.3,7.7-9.1,11.8c-5.7,8.2-10.4,17-14.2,26.2c-3.7,9.2-6.5,18.9-8.2,28.7l2.1,0.4c1.6-9.7,4.1-19.2,7.7-28.4
					c3.6-9.1,8.2-18,13.7-26.1c2.8-4.1,5.7-8.1,8.9-11.8c3.2-3.8,6.5-7.4,10.1-10.9c3.5-3.4,7.2-6.7,11.1-9.8
					c3.9-3,7.9-5.9,12.2-8.4L155.2,169.5z"/>
				<path class="st2" d="M171.3,158.3c-0.2,3.3-2.4,7-6.1,9.6c-3.7,2.6-7.9,3.4-11,2.5c0.2-3.3,2.4-7,6.1-9.6
					C163.9,158.2,168.1,157.4,171.3,158.3z"/>
				<path class="st2" d="M146.6,155.4c2.4,2.2,4,6.2,3.7,10.7c-0.3,4.5-2.2,8.3-4.9,10.2c-2.4-2.2-4-6.2-3.7-10.7
					C142,161.2,144,157.4,146.6,155.4z"/>
				<path class="st3" d="M72.8,112.9c2.8,1.7,5.1,5.3,5.7,9.8c0.6,4.4-0.5,8.6-2.8,11c-2.8-1.7-5.1-5.3-5.7-9.8
					C69.4,119.5,70.5,115.4,72.8,112.9z"/>
				<path class="st3" d="M89.5,128.2c0.3,2.6-0.8,5.7-3.1,8.3c-2.4,2.6-5.5,3.9-8.1,3.7c-0.3-2.6,0.8-5.7,3.1-8.3
					C83.9,129.3,86.9,128,89.5,128.2z"/>
				<path class="st3" d="M78.1,141.2c-2.2,1.4-5.5,1.8-8.8,0.7c-3.3-1.1-5.8-3.3-6.8-5.7c2.2-1.4,5.5-1.8,8.8-0.7
					C74.7,136.5,77.2,138.8,78.1,141.2z"/>
				<path class="st3" d="M81.3,150.8c-2.2,1.4-5.5,1.8-8.8,0.7c-3.3-1.1-5.8-3.3-6.8-5.7c2.2-1.4,5.5-1.8,8.8-0.7
					C77.9,146.1,80.4,148.4,81.3,150.8z"/>
				<path class="st3" d="M84.5,162.3c-2.2,1.4-5.5,1.8-8.8,0.7c-3.3-1.1-5.8-3.3-6.8-5.7c2.2-1.4,5.5-1.8,8.8-0.7
					C81.1,157.7,83.5,159.9,84.5,162.3z"/>
				<path class="st3" d="M86.8,172.8c-2.2,1.4-5.5,1.8-8.8,0.7c-3.3-1.1-5.8-3.3-6.8-5.7c2.2-1.4,5.5-1.8,8.8-0.7
					C83.3,168.2,85.8,170.4,86.8,172.8z"/>
				<path class="st3" d="M86.6,171.8c2.2,1.4,5.5,1.8,8.8,0.7c3.3-1.1,5.8-3.3,6.8-5.7c-2.2-1.4-5.5-1.8-8.8-0.7
					C90,167.1,87.5,169.3,86.6,171.8z"/>
				<path class="st3" d="M92.6,138.2c0.3,2.6-0.8,5.7-3.1,8.3c-2.4,2.6-5.5,3.9-8.1,3.7c-0.3-2.6,0.8-5.7,3.1-8.3
					C86.9,139.3,90,138,92.6,138.2z"/>
				<path class="st3" d="M96.1,150.5c0.3,2.6-0.8,5.7-3.1,8.3c-2.4,2.6-5.5,3.9-8.1,3.7c-0.3-2.6,0.8-5.7,3.1-8.3
					C90.4,151.6,93.5,150.3,96.1,150.5z"/>
				<path class="st2" d="M132.1,162.8c3,1.5,5.5,5,6.4,9.3c0.9,4.4,0.1,8.6-2,11.2c-3-1.5-5.5-5-6.4-9.3
					C129.1,169.5,130,165.3,132.1,162.8z"/>
				<path class="st2" d="M122.3,171.8c3,1.5,5.5,5,6.4,9.3c0.9,4.4,0.1,8.6-2,11.2c-3-1.5-5.5-5-6.4-9.3
					C119.3,178.6,120.2,174.4,122.3,171.8z"/>
				<path class="st2" d="M103,192.7c3-0.1,6.4,1.5,9.1,4.5c2.7,3,3.8,6.6,3.3,9.6c-3,0.1-6.4-1.5-9.1-4.5
					C103.7,199.3,102.5,195.6,103,192.7z"/>
				<path class="st2" d="M97.2,200c3-0.1,6.4,1.5,9.1,4.5c2.7,3,3.8,6.6,3.3,9.6c-3,0.1-6.4-1.5-9.1-4.5
					C97.9,206.6,96.7,203,97.2,200z"/>
				<path class="st2" d="M93.9,210.8c2.5-0.1,5.5,1.3,7.8,3.8c2.3,2.6,3.3,5.7,2.9,8.2c-2.5,0.1-5.5-1.3-7.8-3.8
					C94.5,216.4,93.5,213.3,93.9,210.8z"/>
				<path class="st2" d="M90.7,222.1c1.8-1,4.6-1.2,7.3-0.1c2.7,1,4.6,3,5.3,5c-1.8,1-4.6,1.2-7.3,0.1
					C93.3,226,91.4,224.1,90.7,222.1z"/>
				<path class="st2" d="M89.4,231.3c1.1-1.3,3.2-2.1,5.5-2c2.3,0.1,4.3,1.1,5.3,2.4c-1.1,1.3-3.2,2.1-5.5,2
					C92.4,233.7,90.4,232.7,89.4,231.3z"/>
				<path class="st2" d="M165.2,182.9c-2.8,1.7-7.1,2.1-11.3,0.6c-4.2-1.5-7.4-4.4-8.5-7.5c2.8-1.7,7.1-2.1,11.3-0.6
					C161,176.9,164.1,179.8,165.2,182.9z"/>
				<path class="st2" d="M156.3,190.2c-2.8,1.7-7.1,2.1-11.3,0.6c-4.2-1.5-7.4-4.4-8.5-7.5c2.8-1.7,7.1-2.1,11.3-0.6
					C152,184.2,155.1,187.1,156.3,190.2z"/>
				<path class="st2" d="M146.7,199.3c-2.8,1.7-7.1,2.1-11.3,0.6c-4.2-1.5-7.4-4.4-8.5-7.5c2.8-1.7,7.1-2.1,11.3-0.6
					C142.5,193.3,145.6,196.2,146.7,199.3z"/>
				<path class="st2" d="M136,205.4c-2.3,1.4-5.8,1.7-9.2,0.5c-3.4-1.2-6-3.6-6.9-6.1c2.3-1.4,5.8-1.7,9.2-0.5
					C132.5,200.5,135.1,202.8,136,205.4z"/>
				<path class="st2" d="M127.9,211.1c-1.9,1.2-4.7,1.5-7.5,0.5c-2.8-1-4.8-2.9-5.5-5c1.9-1.2,4.7-1.5,7.5-0.5
					C125.2,207.1,127.2,209,127.9,211.1z"/>
				<path class="st2" d="M123.1,218.5c-1.9,1.2-4.7,1.5-7.5,0.5c-2.8-1-4.8-2.9-5.5-5c1.9-1.2,4.7-1.5,7.5-0.5
					C120.4,214.5,122.4,216.4,123.1,218.5z"/>
				<path class="st2" d="M117.8,225.2c-1.5,1.3-4.1,1.9-6.8,1.5s-4.9-1.8-6-3.5c1.5-1.3,4.1-1.9,6.8-1.5
					C114.6,222.1,116.8,223.5,117.8,225.2z"/>
				<path class="st2" d="M112.7,233.7c-1.7,0.5-4,0-6-1.3c-2-1.4-3.2-3.3-3.4-5.1c1.7-0.5,4,0,6,1.3
					C111.3,230,112.6,231.9,112.7,233.7z"/>
				<path class="st2" d="M107.1,238.7c-1.4,0.1-3-0.5-4.3-1.8c-1.3-1.3-2-3-1.8-4.3c1.4-0.1,3,0.5,4.3,1.8
					C106.5,235.7,107.2,237.4,107.1,238.7z"/>
				<path class="st2" d="M103.3,240.1c-0.9,0.1-1.9-0.2-2.7-1c-0.8-0.8-1.2-1.9-1-2.7c0.9-0.1,1.9,0.2,2.7,1
					C103.1,238.1,103.4,239.2,103.3,240.1z"/>
				<path class="st2" d="M102.1,242.6c-0.9,0.1-1.9-0.2-2.7-1c-0.8-0.8-1.2-1.9-1-2.7c0.9-0.1,1.9,0.2,2.7,1
					C101.9,240.6,102.2,241.7,102.1,242.6z"/>
				<path class="st3" d="M91.3,251.2c1.5-10,2.1-20,2-30.1c0-5-0.3-10-0.7-15.1c-0.4-5-1-10-1.7-15c-1.4-9.9-3.4-19.8-5.9-29.5
					c-1.3-4.9-2.6-9.7-4.2-14.5c-1.5-4.8-3.1-9.5-5-14.2l-0.6,0.2c1.8,4.6,3.4,9.4,4.8,14.2c1.5,4.8,2.8,9.6,4,14.5
					c2.4,9.7,4.2,19.5,5.5,29.4c0.6,5,1.2,9.9,1.5,14.9c0.3,5,0.5,10,0.5,14.9c0,10-0.7,19.9-2.3,29.7L91.3,251.2z"/>
				<g>
					<path class="st2" d="M78.2,230.9c-4.7-6.9-9.6-13.6-14.9-20l0.1-0.1c5.4,6.3,10.5,12.9,15.3,19.7c4.8,6.8,9.4,13.8,13.5,21.1
						c1,1.8,1.9,3.5,2.9,5.3c-0.4,0.2-0.7,0.4-1.1,0.6c-0.9-1.8-1.8-3.6-2.8-5.4C87.3,244.8,82.9,237.7,78.2,230.9z"/>
					<path class="st2" d="M58.2,202.1c1.7,0.2,3.5,1.3,4.6,3.2c1.1,1.9,1.3,4,0.6,5.6c-1.7-0.2-3.5-1.3-4.6-3.2
						C57.7,205.8,57.5,203.7,58.2,202.1z"/>
					<path class="st2" d="M71,206.1c0.7,1.4,0.7,3.4,0,5.5c-0.8,2-2.2,3.5-3.6,4.1c-0.7-1.4-0.7-3.4,0-5.5
						C68.2,208.2,69.6,206.7,71,206.1z"/>
					<path class="st2" d="M71.5,221.2c-1.2,1-3.2,1.5-5.3,1.2c-2.2-0.3-4-1.3-4.8-2.6c1.2-1,3.2-1.5,5.3-1.2
						C68.8,218.9,70.6,219.9,71.5,221.2z"/>
					<path class="st2" d="M76.7,227.9c-1.2,1-3.2,1.5-5.3,1.2c-2.2-0.3-4-1.3-4.8-2.6c1.2-1,3.2-1.5,5.3-1.2
						C74,225.6,75.8,226.6,76.7,227.9z"/>
					<path class="st2" d="M80.2,233.2c-1.2,1-3.2,1.5-5.3,1.2c-2.2-0.3-4-1.3-4.8-2.6c1.2-1,3.2-1.5,5.3-1.2
						C77.5,230.9,79.3,231.9,80.2,233.2z"/>
					<path class="st2" d="M84.1,239.1c-1.2,1-3.2,1.5-5.3,1.2c-2.2-0.3-4-1.3-4.8-2.6c1.2-1,3.2-1.5,5.3-1.2
						C81.4,236.8,83.2,237.8,84.1,239.1z"/>
					<path class="st2" d="M75.5,211.9c0.7,1.4,0.7,3.4,0,5.5c-0.8,2-2.2,3.5-3.6,4.1c-0.7-1.4-0.7-3.4,0-5.5
						C72.7,213.9,74.1,212.4,75.5,211.9z"/>
					<path class="st2" d="M79.9,217.8c0.7,1.4,0.7,3.4-0.1,5.5c-0.8,2-2.2,3.5-3.6,4.1c-0.7-1.4-0.7-3.4,0-5.5
						C77,219.8,78.4,218.3,79.9,217.8z"/>
					<path class="st2" d="M84,223.7c0.7,1.4,0.7,3.4,0,5.5c-0.8,2-2.2,3.5-3.6,4.1c-0.7-1.4-0.7-3.4,0.1-5.5
						C81.1,225.8,82.5,224.3,84,223.7z"/>
					<path class="st2" d="M87.9,229.5c0.7,1.4,0.7,3.4,0,5.5c-0.8,2-2.2,3.5-3.6,4.1c-0.7-1.4-0.7-3.4,0.1-5.5
						C85.1,231.6,86.5,230.1,87.9,229.5z"/>
				</g>
				<g>
					
						<rect x="78.5" y="250.8" transform="matrix(-1 -1.224647e-16 1.224647e-16 -1 179.3144 522.3465)" class="st4" width="22.2" height="20.7"/>
					
						<rect x="72.6" y="246.7" transform="matrix(-1 -1.224647e-16 1.224647e-16 -1 177.6191 495.1269)" class="st5" width="32.5" height="1.7"/>
					
						<rect x="74.6" y="248.4" transform="matrix(-1 -1.224647e-16 1.224647e-16 -1 177.6197 500.5115)" class="st6" width="28.5" height="3.7"/>
				</g>
			</g>
			<g>
				<path class="st7" d="M206.4,132.9c-0.1-0.2-0.2-0.3-0.4-0.2l-0.7,0.2c0,0,0,0,0,0l-11,3.2c0,0-0.1,0-0.1,0
					c-0.1,0-0.2,0.1-0.3,0.2l-2.1,0.6v-10.1c0-0.2-0.1-0.3-0.3-0.3c-0.2,0-0.3,0.1-0.3,0.3v10.3l-8.5,2.5c-0.2,0-0.3,0.2-0.2,0.4
					c0,0.1,0.2,0.2,0.3,0.2c0,0,0.1,0,0.1,0l0.1,0v17.5c0,0.2,0.1,0.3,0.3,0.3c0.2,0,0.3-0.1,0.3-0.3v-17.7l10.2-3v23.3
					c0,0.2,0.1,0.3,0.3,0.3c0.2,0,0.3-0.1,0.3-0.3v-23.4l10.6-3.1v14.6c0,0.2,0.1,0.3,0.3,0.3c0.2,0,0.3-0.1,0.3-0.3v-14.8l0.5-0.1
					C206.4,133.2,206.5,133.1,206.4,132.9z"/>
				<linearGradient id="SVGID_1_" gradientUnits="userSpaceOnUse" x1="200.1065" y1="152.8064" x2="210.7746" y2="152.8064">
					<stop  offset="0" style="stop-color:#FFE5B8"/>
					<stop  offset="1" style="stop-color:#FFC870"/>
				</linearGradient>
				<polygon class="st8" points="209.2,157.5 205.8,156 202.6,158 203,154.3 200.1,151.9 203.8,151.1 205.2,147.6 207.1,150.8 
					210.8,151.1 208.3,153.9 				"/>
				<linearGradient id="SVGID_2_" gradientUnits="userSpaceOnUse" x1="188.8254" y1="163.4059" x2="199.4935" y2="163.4059">
					<stop  offset="0" style="stop-color:#FFE5B8"/>
					<stop  offset="1" style="stop-color:#FFC870"/>
				</linearGradient>
				<polygon class="st9" points="197.9,168.1 194.5,166.6 191.3,168.6 191.7,164.9 188.8,162.5 192.5,161.7 193.9,158.2 
					195.8,161.4 199.5,161.7 197,164.5 				"/>
				<linearGradient id="SVGID_3_" gradientUnits="userSpaceOnUse" x1="180.507" y1="158.8611" x2="186.6129" y2="158.8611">
					<stop  offset="0" style="stop-color:#FFE5B8"/>
					<stop  offset="1" style="stop-color:#FFC870"/>
				</linearGradient>
				<polygon class="st10" points="185.7,161.6 183.7,160.7 181.9,161.8 182.1,159.7 180.5,158.3 182.6,157.9 183.4,155.9 
					184.5,157.7 186.6,157.9 185.2,159.5 				"/>
				<g>
					<g>
						<path class="st7" d="M218,183.4c-0.5,0-0.9-0.4-0.9-0.9v-41.4c0-7.3,1.1-14.4-4.4-19.5c-5-4.6-20.3-6.5-20.3,3.5
							c0,0.5-0.4,0.9-0.9,0.9s-0.9-0.4-0.9-0.9c0-11.6,16.8-10.6,23.1-4.7c5.3,4.9,5.2,11.4,5,17.7c-0.1,4,0,0,0,44.4
							C218.8,183,218.4,183.4,218,183.4z"/>
					</g>
				</g>
				<g>
					<rect x="216.1" y="181.3" class="st7" width="3.9" height="5.3"/>
				</g>
				<g>
					<path class="st11" d="M193.6,126.1c0,1.2-0.9,2.1-2.1,2.1c-1.2,0-2.1-0.9-2.1-2.1c0-1.2,0.9-2.1,2.1-2.1
						C192.7,124.1,193.6,125,193.6,126.1z"/>
				</g>
				<rect x="206.2" y="250.6" class="st4" width="9" height="17.9"/>
				<linearGradient id="SVGID_4_" gradientUnits="userSpaceOnUse" x1="259.8054" y1="246.404" x2="6.1768" y2="225.3892">
					<stop  offset="0" style="stop-color:#EFAFE8"/>
					<stop  offset="1" style="stop-color:#FFE3D9"/>
				</linearGradient>
				<rect x="77.1" y="233.1" class="st12" width="141.1" height="8"/>
				<rect x="77.7" y="217.8" class="st13" width="138.7" height="16.2"/>
				<linearGradient id="SVGID_5_" gradientUnits="userSpaceOnUse" x1="261.0743" y1="229.597" x2="8.117" y2="208.6379">
					<stop  offset="0" style="stop-color:#EF56BB"/>
					<stop  offset="1" style="stop-color:#FFE3D9"/>
				</linearGradient>
				<path class="st14" d="M217.9,170c-1.7,0-3,1.2-3,2.8v12.5H79.7v-11.1c0-1.5-1.3-2.8-3-2.8c-1.7,0-3,1.2-3,2.8v95.9l6-0.2v-16.5
					h135.2v15.2l6,0.1v-95.8C220.9,171.3,219.6,170,217.9,170z M89.9,244.3H79.7v-52.6h10.2V244.3z M100.9,244.3h-8.2v-52.6h8.2
					V244.3z M111.8,244.3h-8.2v-52.6h8.2V244.3z M122.5,244.3h-8v-52.6h8V244.3z M133.4,244.3h-8.2v-52.6h8.2V244.3z M144.3,244.3
					h-8.2v-52.6h8.2V244.3z M155.2,244.3H147v-52.6h8.2V244.3z M166.1,244.3h-8.2v-52.6h8.2V244.3z M177,244.3h-8.2v-52.6h8.2V244.3
					z M187.9,244.3h-8.2v-52.6h8.2V244.3z M198.8,244.3h-8.2v-52.6h8.2V244.3z M209.7,244.3h-8.2v-52.6h8.2V244.3z M214.9,244.3
					h-2.4v-52.6h2.4V244.3z"/>
			</g>
			<g>
				<rect x="71.6" y="245.8" class="st15" width="152.1" height="9.5"/>
			</g>
		</g>
	</g>
	<linearGradient id="SVGID_6_" gradientUnits="userSpaceOnUse" x1="77.1908" y1="270.1372" x2="223.7109" y2="270.1372">
		<stop  offset="0" style="stop-color:#642186"/>
		<stop  offset="1" style="stop-color:#AA359A"/>
	</linearGradient>
	<path class="st16" d="M223.7,270.1c0,3.7-32.8,6.7-73.3,6.7c-40.5,0-73.3-3-73.3-6.7c0-3.7,32.8-6.7,73.3-6.7
		C190.9,263.5,223.7,266.5,223.7,270.1z"/>
	<path class="st17" d="M147.5,121c0,0,3.2,5.5,5.2,9.7c2,4.2,6.2,6.3,6.2,6.3l2.4-11.4c0,0-7.4-3.4-8.3-5.2
		C152,118.6,147.5,121,147.5,121z"/>
	<g>
		<path class="st18" d="M147.1,248.8c0.7,0.7-4.5,12.7-4.5,12.7l7.2,1.9l3.6-14.2L147.1,248.8z"/>
		<path class="st19" d="M164.1,143.4l-4.1,6c0,0-5.5,48.9-6.9,54.4c-1.3,5.5-8.6,52-8.6,52l7.6,2.7c0,0,14.4-38.5,13.7-43.6
			c-0.7-5.1,16.4-52.6,16.4-52.6l-17.2-19L164.1,143.4z"/>
		
			<linearGradient id="SVGID_7_" gradientUnits="userSpaceOnUse" x1="-32.0411" y1="171.6432" x2="-26.3845" y2="317.2968" gradientTransform="matrix(0.9986 -5.200000e-02 5.200000e-02 0.9986 199.4922 -28.5027)">
			<stop  offset="0" style="stop-color:#116363"/>
			<stop  offset="1" style="stop-color:#2C9D9E"/>
		</linearGradient>
		<path class="st20" d="M167.3,146.4l-4.4,1l3.3,17.5c0,0,10.8,36.3,11.6,48.6c0.8,12.2-6.3,46.2-6.3,46.2L184,260
			c0,0,10.8-34.5,8.3-44.5c-2.5-10,1.1-53.7,1.1-53.7l-4.3-16.4L167.3,146.4z"/>
		<path class="st21" d="M181.8,258.6c0,0-0.3,4.4-0.4,7.4c-0.2,3,1.3,5.4-3.2,5.9c-4.4,0.4-9-0.8-9.4-2.8c-0.3-2,4.2-6.4,4.3-8.3
			c0.1-1.9,1.4-2.7,2.1-2C176,259.4,181.8,258.6,181.8,258.6z"/>
		<path class="st22" d="M181.1,270.6c-0.8,0.7-1.9,0.8-3.1,0.8c-2.5,0-8.1-0.3-9.2-2.2c-0.1,0.5,0.2,1.1,0.6,1.5
			C172.5,273.4,180.6,273,181.1,270.6z"/>
		<path class="st23" d="M173.8,263.3c-0.1,1.9,2.9,3.5,4,1.9c0,0,1.5-4.1,1.7-5.3c0.1-0.7,0.7-2-1.3-2.4c-2-0.4-3.5,0.3-3.5,1
			C174.6,258.8,173.9,260.5,173.8,263.3z"/>
		<path class="st21" d="M178.3,264.4c0,0,0.1-5.4,1.1-5.6c0.9-0.2,2.4-0.2,2.4-0.2s-0.8,5.5-1.9,6.3
			C178.7,265.8,178.3,264.4,178.3,264.4z"/>
		<g>
			<path class="st22" d="M173.3,260.3c0,0.1,0,0.1,0.1,0.2c2.5,1.7,6.2,0.2,6.4,0.2c0.1-0.1,0.2-0.2,0.1-0.3
				c-0.1-0.1-0.2-0.2-0.4-0.1c0,0-3.6,1.4-5.8-0.1c-0.1-0.1-0.3-0.1-0.4,0C173.3,260.2,173.3,260.2,173.3,260.3z"/>
		</g>
		<g>
			<path class="st22" d="M173,262.4c0,0.1,0,0.1,0.1,0.2c1.6,1.1,6,0.2,6.2,0.1c0.1,0,0.2-0.2,0.2-0.3c0-0.1-0.2-0.2-0.3-0.2
				c-1.2,0.3-4.6,0.8-5.7,0c-0.1-0.1-0.3-0.1-0.4,0C173.1,262.3,173,262.4,173,262.4z"/>
		</g>
		<g>
			<path class="st22" d="M172.8,264c0,0.1,0,0.1,0.1,0.2c1.2,1.1,6,0.4,6.5,0.3c0.1,0,0.2-0.1,0.2-0.3c0-0.1-0.2-0.2-0.3-0.2
				c-1.4,0.2-5.1,0.6-6-0.2c-0.1-0.1-0.3-0.1-0.4,0C172.8,263.9,172.8,263.9,172.8,264z"/>
		</g>
		<g>
			<path class="st23" d="M141.8,262.5c-1.8,1-3.3-0.6-3.3-0.6c1.8-2.6,2.8-4.9,3.2-5.4c0.5-0.6,1.1-1.4,2.8-0.6c1.6,0.8,3,2.6,2.4,3
				C146.5,259.1,144.5,261,141.8,262.5z"/>
			<path class="st21" d="M153.1,267.5c0,0-4.3,0-7.4,0.1c-3,0-7.9,0.4-9.4,0.4c-1.5,0-7-2.9-6.7-3.9c0.3-1,5.3-0.8,7.9-1.9
				c2.6-1.1,6-4.5,7.1-4.4c1,0,6,1,6.8,1.7C152.5,260.2,153.9,266.9,153.1,267.5z"/>
			<path class="st22" d="M131,263.5C131,263.5,131,263.5,131,263.5c1.2,0.3,3.2,2.2,6.2,2.9c2.3,0.5,11.9-0.5,16.1-1
				c0.1,1.1,0.1,2-0.1,2.2c0,0-4.3,0-7.4,0.1c-3,0-7.9,0.4-9.4,0.4c-1.5,0-7-2.9-6.7-3.9C129.8,263.8,130.3,263.6,131,263.5z"/>
			<g>
				<path class="st22" d="M140.5,263.6c0,0,0.1-0.1,0-0.1c-0.3-1.7-2.7-1.7-2.9-1.7c-0.1,0-0.2,0.1-0.2,0.1c0,0.1,0,0.1,0.1,0.1
					c0,0,2.3,0.1,2.6,1.5C140.2,263.6,140.3,263.7,140.5,263.6C140.5,263.6,140.5,263.6,140.5,263.6z"/>
			</g>
			<g>
				<path class="st22" d="M141.7,262.4c0,0,0.1-0.1,0-0.1c-0.2-1.1-2.7-1.6-2.8-1.6c-0.1,0-0.2,0-0.2,0.1c0,0.1,0,0.2,0.1,0.2
					c0.7,0.1,2.5,0.7,2.6,1.5C141.4,262.4,141.5,262.5,141.7,262.4C141.6,262.4,141.6,262.4,141.7,262.4z"/>
			</g>
			<g>
				<path class="st22" d="M142.5,261.5c0,0,0-0.1,0-0.1c0-1-2.5-1.7-2.8-1.8c-0.1,0-0.2,0-0.2,0.1c0,0.1,0,0.2,0.1,0.2
					c0.7,0.2,2.7,0.9,2.7,1.6c0,0.1,0.1,0.1,0.2,0.1C142.5,261.6,142.5,261.6,142.5,261.5z"/>
			</g>
		</g>
		<path class="st24" d="M179.3,266.6c0,0,1,2.9,0.3,3.4c-0.7,0.5-9,0.1-9-1.1c0.1-1.2,2.1-3.5,2.8-3.7
			C174.2,265,179.3,266.6,179.3,266.6z"/>
	</g>
	<linearGradient id="SVGID_8_" gradientUnits="userSpaceOnUse" x1="154.0514" y1="121.3974" x2="191.9006" y2="121.3974">
		<stop  offset="0" style="stop-color:#EFCFE8"/>
		<stop  offset="1" style="stop-color:#FFE3FC"/>
	</linearGradient>
	<path class="st25" d="M163.4,92.5c0,0-9.4,6.1-9.4,9.7c0,3.6,4.7,16,4.7,22.4s-1.8,29-1.8,29s11.5,0.6,25.4-1.3
		c7.4-1,9.5-0.1,9.5-0.1s-1.7-26.4-4-38.8c-2.2-12.5,0.5-20.9-1.3-22.8C184.7,88.6,171.2,88.4,163.4,92.5z"/>
	<linearGradient id="SVGID_9_" gradientUnits="userSpaceOnUse" x1="166.7646" y1="121.8977" x2="191.9006" y2="121.8977">
		<stop  offset="0" style="stop-color:#791962"/>
		<stop  offset="1" style="stop-color:#FF3F55"/>
	</linearGradient>
	<path class="st26" d="M186.6,90.5c-0.1-0.1-0.2-0.1-0.3-0.2c-1.2,2.8-2.9,8.2-2.4,16.1c0.7,12.1,2.1,16.8-4.3,23.2
		c-6.4,6.4,7,3,7,6.9c0,3.9-21.6,6.4-14.7,9.9c6,3-2.8,6.4-5.1,7.2c4.3-0.1,9.8-0.5,15.6-1.3c7.4-1,9.5-0.1,9.5-0.1
		s-1.7-26.4-4-38.8C185.7,100.8,188.5,92.4,186.6,90.5z"/>
	<path class="st27" d="M154.7,90.2c0,0,8.9-1.3,14.4-1.3c5.4,0,14.6,3.3,15.5,2.9l-7.7-5.6h-10.8L154.7,90.2z"/>
	<path class="st28" d="M179,94.1c-4.3,4.3-0.9,10.8-4.7,18.6c-3.8,7.7-0.7,10.3-0.7,12.1c0,1.8-8.1,2.9-8.1,1.3
		c0-1.6,2.5-15,2.5-17.3c0-2,1.1-9.5,1.4-12.8c0.1-0.6,0.1-1.1,0.1-1.4c0-1.6,0.2-3.9,0.5-5.9c0.3-2.4,0.6-4.5,0.6-4.5l9.2-0.7
		C179.7,83.4,183.3,89.8,179,94.1z"/>
	<path class="st29" d="M160.1,86c0,0-10.6,8.5-11.4,12c-0.9,3.5-0.8,18-3.4,20.6c-2.6,2.6-6.4,3.2-5.2,4.3c1.2,1.2,12.8,0.6,14-0.6
		c1.2-1.2-1.4-5.3-0.8-7.7c0.6-2.4,4.2-14.5,4.2-16.5c0-2,17.9-13.1,17.9-13.1L160.1,86z"/>
	<path class="st17" d="M186.6,90.5c0,0-0.3,13.5,1.1,21.2c1.4,7.8,2,9.7,2,9.7l9.7,7.8C199.4,129.2,197.7,89.3,186.6,90.5z"/>
	<path class="st30" d="M200.4,121.4c-1.1-11.8-5.2-31.6-13.8-30.9c-7.3,0.6-2.3,28.1-2,29.6C187.6,120,197.5,121,200.4,121.4z"/>
	<path class="st31" d="M186.6,90.5c-6.9,0.4-3.7,22.4-2,29.6C183.8,114.1,180.5,91.6,186.6,90.5z"/>
	<path class="st32" d="M195.6,119.4c-3.1-1.5-16.3-2.1-17.9-3.7c-1.6-1.6-0.6-3.8-2.8-4.5c-2.3-0.7-8.2-1.9-8.2,0s0.4,1.7,0,2.8
		c-0.4,1-0.5,1.9-0.5,2.6s-0.3,0.8-0.3,1.9c0,1.1,0.6,1.9,0.6,1.9s2-1.4,3.2-1.4c1.2,0,2.1-0.2,3,1.4c0.9,1.6,22.1,9.9,23.8,10.3
		c1.7,0.4,3.2-0.6,3.2-1.7C199.4,127.8,199.7,121.3,195.6,119.4z"/>
	<path class="st18" d="M144.6,112.2c0,0,0.2-1.7,0.8-2.3c0.6-0.6,3-1,5,0.2c2,1.2,3.2,1,2.1,2.1c-1.1,1.1-4-0.9-4-0.9
		s4.3,1.9,3.7,3.2c-0.6,1.3-3.5-1.3-4.2-0.7c-0.7,0.7,4.1,1.9,3.3,2.7c-0.8,0.8-4.7-1.8-4.7-0.8c0,1,4.1,1.2,3,2.3
		c-1.1,1.1-3.9,0-4.8,0.4c-0.9,0.5-2-0.5-1.4-1.2c0,0-0.8-2.1-0.2-2.1c0,0-0.2-1.5,0.2-1.9C143.6,112.9,144.6,112.2,144.6,112.2z"/>
	<path class="st33" d="M159.9,59.6c0,0,0.6,0.5,6.2,3.4c5.6,2.9,18.6,28.8,18.6,28.8s-10.4,0.3-14.8-3.1c-5.9-4.7-15.1,1.6-15.1,1.6
		s5.9-3.1,5.9-6.2c0-3.1-12.4-10.9-11.1-15.7C150.9,63.5,159.9,59.6,159.9,59.6z"/>
	<path class="st34" d="M169.7,88.1c-4.3-3.1-10.6-1-15,2.1c4.3-2.5,10.5-4.5,14.6-1.5c4.1,3,10.4,3.4,15.3,3.1
		C179.8,91.6,173.5,91,169.7,88.1z"/>
	<g>
		<path class="st18" d="M139.8,75.8c0,0,0.5,6.7,2.4,9.8c2,3.2,5.3,8.2,5.3,8.2l1.2-1.1c0,0,3.2,1.6,4.7,3.2c1.5,1.7,3.2-1.7,4.7-3
			c1.5-1.3,3.7-5.6,0.9-11.5C156.1,75.5,151.1,65,139.8,75.8z"/>
		<path class="st18" d="M169.9,89c-0.2,2-0.5,3.9-0.5,5.6c0,0.3,0,0.8-0.1,1.4c-0.8,1.6-1.8,2.9-2.2,2.9c-3.6-0.3-5.2-3.5-7.1-5.2
			c-0.5-0.4-1-0.9-1.4-1.3c0,0,0,0,0,0c-0.5-0.4-0.9-0.8-1.2-1.1c0,0,0,0,0,0c-0.3-0.9-2.6-7.3-3.1-8.6c0-0.1-0.7-1.9-0.7-1.9
			l3.9,1.2L169.9,89z"/>
		<path class="st35" d="M133.1,76.6c0.1,0.4,2,7.3,7.7,5.6c5.8-1.8,4.4-5.3,7-4.7c2.6,0.7,2.8,5.2,5.1,5.9l1.6-0.9
			c0,0-0.4-1.1,0.1-1.5c0.6-0.5,4.4,3.5,5.3,2.8c0.9-0.8-0.5-5.8-1.1-8.2c-0.6-2.4-3.8-9.5-8.2-8.1c-4.4,1.3-4.8,3.7-6.1,2.3
			c-1.2-1.4-1.3,1.3-1.3,1.3s-1.7-0.4-2.2-2c-0.5-1.6-4.8,1.4-3.6,4.5C138.4,76.5,132.4,72.7,133.1,76.6z"/>
		<path class="st18" d="M152.1,80.4c0,0,2.3,2.8,3,2.2c0.7-0.6,0.7-3.4-0.9-4.8C152.4,76.4,150.7,78.3,152.1,80.4z"/>
		<path class="st17" d="M152.3,79.7c0,0,0.6,1.4,1.5,1.4c0.9,0.1,0.8-2-0.5-2.4C152.1,78.3,151.8,79,152.3,79.7z"/>
		<path class="st35" d="M144.5,85.2L145,86c0,0,1-1.2,2.2-1.1c1.2,0.1,1.3,0.1,1.3,0.1S146.9,83.8,144.5,85.2z"/>
		<path class="st35" d="M147.5,86.2c0.3,0.3,0.3,0.8,0,1c-0.3,0.2-0.7,0.2-1-0.2c-0.3-0.3-0.3-0.8,0-1
			C146.7,85.8,147.2,85.8,147.5,86.2z"/>
		<path class="st35" d="M151.9,93.1c0.4-0.3,0.7-0.8,0.9-1.2c0.1-0.2,0.1-0.5,0-0.7c0-0.2-0.2-0.4-0.3-0.6l0,0
			c-0.1-0.1,0-0.3,0.1-0.4c0.1-0.1,0.3-0.1,0.4,0.1c0,0,0,0,0,0c0.1,0.3,0.2,0.5,0.2,0.8c0,0.3-0.1,0.6-0.2,0.8
			C152.7,92.4,152.3,92.8,151.9,93.1z"/>
		<path class="st35" d="M135.7,83.1c0.2,0.3,0.7,0.4,1,0.5c1.5,0.3,3.1-0.8,4.1-1.5c-0.1,0.1-1.2,1.5-2.5,2.1
			c-1.4,0.7-2.7,0.5-3.6,0L135.7,83.1z"/>
		<path class="st17" d="M161.1,89.2c-0.1,0.8-0.7,3-1.1,4.4c-1.5-1.3-2.7-2.4-2.7-2.4s1.3,0-3.2-8.8c0,0,0,0,0,0c0,0,0,0,0,0
			C154.9,83,161.2,88.1,161.1,89.2z"/>
		<path class="st35" d="M152.3,94.9c0,0,0.7,1.3,1.3,1.9c0.5,0.6,2.7-0.1,3.7-1.7c1-1.6,2.1-4.2,2.2-5.1c0.1-0.9-5.1-7.5-5.1-7.5
			l-1.5,0.9c0,0,3,4.7,3,5.6C155.8,90,152.3,94.9,152.3,94.9z"/>
		<path class="st17" d="M148.2,88.2c0.3,0.5,1.2,0.6,2.1,0.1c0.9-0.5,1.3-1.3,1-1.8c-0.3-0.5-1.2-0.6-2.1-0.1
			C148.4,86.8,147.9,87.6,148.2,88.2z"/>
	</g>
	<g>
		<path class="st36" d="M166.8,63.3c-2.2-2.2-7.7-6.7-9-0.9c0,0-0.3,1.6,0.6,6.3c0.3,2,0.8,3.6,1.3,4.8c2.5,0.6,6.4,1.8,8.9,2.6
			C169.6,71.4,168.4,64.9,166.8,63.3z"/>
		<path class="st37" d="M157.5,63.6c0.1,2.7,0.9,7,2.2,9.9c-1.2-4.1-1.8-10.1-1.5-11.2c0.8-3.5,3.4-2.8,6.3-0.7
			c0.8,0.5,1.5,1.1,2.3,1.8C162.4,58.2,157.5,57.4,157.5,63.6z"/>
		<path class="st29" d="M159.7,73.5c0.6,1.7,1.3,2.9,1.6,4c0.5,1.9,4.1,3.8,4.8,2.3c0.5-1.1,0.9-2.6,1.2-4.3
			C164.8,74.8,162.2,74.1,159.7,73.5z"/>
		<g>
			<path class="st38" d="M137.4,61.9c0,0,4.8,0.1,3.6-4.2c-1.2-4.3-3.6-6.7-2.3-8.9s3.6-4.7,6.6-5.4c0.7-0.1,17.1,8.5,17.1,8.5
				s-8.4,2.1-7,4.4c1.4,2.3-3.7,6.7-5,7.9c-1.3,1.2-6.2,2.7-6.2,2.7l-1.3-1.6c0,0,1.5-0.4,1.7-0.9c0,0-1.7,0.7-3.2,0.6
				C139.8,65,137.4,61.9,137.4,61.9z"/>
			<g>
				<path class="st18" d="M147.3,60.7c0,0,3.6,3.9,2.9,6c-0.7,2.1,6.3-0.8,4.5-4.2c-0.6-1.2-4.2-6-4.2-6L147.3,60.7z"/>
				<path class="st17" d="M153.4,60.5c-0.9,1-2.5,2.2-4,3c-0.9-1.5-2-2.8-2-2.8l3.2-4.1C150.6,56.6,152.1,58.7,153.4,60.5z"/>
				<path class="st18" d="M140.5,48.1c-0.6,1.1-1.4,3.6-0.5,4.9c0.9,1.3,0.7,3.8,2.6,6.4c1.9,2.7,5.6,2.7,6.4,2.2
					c3-2.3,3.6-4.7,3.8-7.3c0.2-2.6,3-4.2-2.6-7.7C144.5,43.2,141.8,46,140.5,48.1z"/>
				<path d="M144.2,55.2c-0.3,0.7-0.7,1-0.8,1.1c0.3,0.2,0.8,0.6,1.3,0.9c-0.2-0.3-0.5-0.6-0.8-0.9c0.7-0.6,0.8-1.6,0.5-2.4
					C144.4,54.7,144.3,54.9,144.2,55.2z"/>
				<path d="M145.1,53.7c0.1-0.8,0.6-1.6,1.3-1.8c0.7-0.2,1.1,0.4,1.8,0.2c-0.5,0.5-1.3,0.1-1.8,0.2
					C145.9,52.4,145.5,53.1,145.1,53.7z"/>
				<path d="M143.5,54.3c-0.5-0.2-1.3-0.3-1.8,0c-0.4,0.3-0.3,0.8-0.7,1.1c0.6-0.1,0.7-0.7,1-0.9C142.3,54.3,142.9,54.3,143.5,54.3z
					"/>
				<path d="M144.8,50.4c0.4-0.3,1-0.2,1.5,0c-1.1-0.1-1.5,0.2-1.8,0.8c-0.3,0.6-0.2,0.9-0.5,0.8C143.8,51.9,144.3,50.8,144.8,50.4z
					"/>
				<path d="M141.2,52.9c-0.2,0.1-0.4,0.4-0.6,0.7c0.1-1,0.7-1.4,1.6-0.8c0.2,0.1,0.1,0.3-0.1,0.3C142.1,53.1,141.4,52.8,141.2,52.9
					z"/>
				<path class="st17" d="M143,56.7c0.3,0.6-0.2,1.3-1,1.8c-0.4-0.7-0.7-1.4-0.9-2.1C141.9,56.1,142.7,56.2,143,56.7z"/>
			</g>
			<path class="st39" d="M143.5,45.4c0,0,7.3,4.7,8,12.1c0.3,2.8-0.4,7.5-0.4,7.5s6.3-3.1,7.9-3.4l-2.3-6.1l3.7,5.1
				c0,0,1.5-0.2,4.2-3.7c2.7-3.5,0.4-7.6,0.4-7.6s-6.4,1.9-9.1-1.8C153,43.7,146,40.3,143.5,45.4z"/>
			<path class="st38" d="M141,47.5c0,0,4.4,2.7,7.6,1c3.2-1.7,4.4-0.8,4.9,0.2c0.5,0.9-0.1,2.3-1.5,2.2c-1.4-0.1-1.7-0.5-1.7-0.5
				s0.3,1.4,1.5,1.8c1.2,0.4,3.9-0.4,3.6-2.8c-0.2-1.5-1.2-3.1-2.6-3.8c-0.6-0.3-1.2-0.3-1.9-0.3c-1.1,0.1-2.2,0.1-3.3-0.1
				c-0.6-0.1-1.1-0.2-1.6-0.4c-0.5-0.2-1-0.4-1.6-0.4c-0.5,0-1,0-1.4,0.2C141.7,45,141.1,46.2,141,47.5z"/>
			<path class="st40" d="M149.9,48L149.9,48c0.2-0.3,0.6-0.4,0.9-0.3l0,0c0.7,0.2,1.3-0.5,1-1.1l0,0c-0.1-0.3-0.1-0.7,0.2-0.9l0,0
				c0.5-0.5,0.2-1.3-0.5-1.4l0,0c-0.4,0-0.6-0.3-0.7-0.6l0,0c-0.1-0.7-1-0.9-1.4-0.3l0,0c-0.2,0.3-0.6,0.4-0.9,0.3l0,0
				c-0.7-0.2-1.3,0.5-1,1.1l0,0c0.1,0.3,0.1,0.7-0.2,0.9l0,0c-0.5,0.5-0.2,1.3,0.5,1.4l0,0c0.4,0,0.6,0.3,0.7,0.6l0,0
				C148.6,48.4,149.5,48.6,149.9,48z"/>
			<path class="st41" d="M150.4,46.7L150.4,46.7c0-0.2,0.1-0.3,0.3-0.4l0,0c0.4-0.1,0.4-0.5,0.1-0.8l0,0c-0.2-0.1-0.2-0.3-0.2-0.5
				l0,0c0.1-0.3-0.2-0.7-0.6-0.5l0,0c-0.2,0.1-0.4,0-0.5-0.1l0,0c-0.2-0.3-0.7-0.1-0.7,0.2l0,0c0,0.2-0.1,0.3-0.3,0.4l0,0
				c-0.4,0.1-0.4,0.5-0.1,0.8l0,0c0.2,0.1,0.2,0.3,0.2,0.5l0,0c-0.1,0.3,0.2,0.7,0.6,0.5l0,0c0.2-0.1,0.4,0,0.5,0.1l0,0
				C149.9,47.2,150.3,47,150.4,46.7z"/>
			<path class="st17" d="M146.6,55.5c0.2,0.5,1,0.5,1.7,0.2c0.7-0.4,1.1-1,0.8-1.5c-0.2-0.5-1-0.5-1.7-0.2
				C146.7,54.4,146.4,55,146.6,55.5z"/>
			<g>
				<path d="M145.9,58.9c1-0.5,2.3-1.6,2.3-1.7c0.1,0,0.1-0.1,0-0.2c0,0-0.1,0-0.2,0c0,0-1.9,1.6-2.7,1.8c-0.1,0-0.1,0.1-0.1,0.1
					c0,0.1,0.1,0.1,0.1,0.1C145.6,59.1,145.7,59,145.9,58.9z"/>
			</g>
		</g>
	</g>
	<path class="st18" d="M145.4,72.9c0,0-0.8-2.9,1.7-4.7c2.5-1.8,3.7-1.3,5.3-1c1.6,0.3,8.4,2.6,10.7,4.9c2.3,2.3,3.5,6.5,3.1,7.6
		c-0.6,1.3-1.2,1.5-3.5,1.5c-2.3,0-8.2-9.1-9.8-9.7c-1.6-0.6-2.1,0.2-3.3,0.9C148.2,73.3,145.4,72.9,145.4,72.9z"/>
	<g>
		<path class="st18" d="M130.2,268c-3.1-0.9-5.9-4.6-6.5-7.8l-3.8,0.1c1,1-0.4,7-0.4,7l0.8,3.3L130.2,268z"/>
		<path class="st42" d="M132.4,268.7c-0.7-0.3-1.4-0.9-2.2-0.8c-10.2,1.8-10.7-0.7-10.7-0.7s-0.9,2.7-0.9,3.3c0,0.6,0.6,0.6,3.7,0.5
			c3.1-0.1,7.9,0.7,10.4-0.1C135.3,270.3,135.4,270,132.4,268.7z"/>
		<path class="st18" d="M105.7,264.4c0,1.7-0.5,3.7-1.1,5.5c-0.5,1.6,0.4,2.6,0.4,3.7c0,2.2,5.7,1.4,5.7,1.4s1.3-3.3,0.6-5.9
			c-0.6-2.1-1.1-4.5-1.2-6c0-0.3,0.1-1,0.2-1.9l-4.6,0.1C105.8,262.9,105.7,264,105.7,264.4z"/>
		<path class="st42" d="M111.3,269c0,0-0.2,5.2-3.1,4.3c-1.8-0.5-3-2.3-3.6-3.5c-0.5,1.6-1,3.2-0.9,4.2c0,2.2,8.7,2.7,8.7,2.7
			S112,271.6,111.3,269z"/>
		<g>
			<polygon class="st17" points="88.7,113.6 89,104.4 95.8,104.4 97,112.9 			"/>
			<path class="st43" d="M91.2,85.7c0,0,4.3-1.2,5,3.3c0,0-3.2-2.3-4.4-1.1c-1.1,1.3-4,2.2-4,2.2L91.2,85.7z"/>
			<path class="st18" d="M89.8,88c0,0,3.9,2,4.5,2.8c0.6,0.8,0.6,2.1,1.8,2.8c1.1,0.7,2.5,0.4,2.5,0.4s0.3,0.8-0.2,1.5
				c-0.5,0.7,0.6,1.5,0.7,1.6c0.1,0-1.8,1.1-1.8,1.1s1.1,1.1,2.2,0.5c0,0,0.2,0.1,0,0.7c-0.2,0.6,0.8,3-0.8,4.1
				c-1.6,1.1-8.4,4-12.9,2.4c-4.5-1.5-9.2-5.6-6.9-10.4C81.1,90.8,89.8,88,89.8,88z"/>
			<path class="st44" d="M94.5,94.6c0.2,0.4,0.5,0.6,0.7,0.5c0.2-0.1,0.2-0.5,0-0.8c-0.2-0.4-0.5-0.6-0.7-0.5
				C94.3,93.9,94.3,94.3,94.5,94.6z"/>
			<path class="st17" d="M92,100.2c0.4,0.8,1.4,1,2.4,0.5c0.9-0.5,1.4-1.5,1-2.2c-0.4-0.8-1.4-1-2.4-0.5C92,98.5,91.6,99.5,92,100.2
				z"/>
			<path class="st45" d="M81.2,88.9c0,0,5.2-4.8,8.5-4.9c3.3-0.2,5.2,3.4,5.2,3.4S91.7,86,90.8,87c0,0,3.3,1.1,4.1,3.7
				c0,0-4-1-5,0.1c-1,1.1,1,3.7,0.6,5.3c-0.4,1.6-1.9,2-1.8,3.4c0.1,1.4,3.8,5,2,7c-1.8,2-6.3,0.7-8.2-0.9c-1.8-1.7-6.1-5.4-6.3-8.2
				c-0.1-2.7,0.8-3.9,2-5.3C79.6,90.7,81.2,88.9,81.2,88.9z"/>
			<path class="st18" d="M89.7,98.1c0,0-1.8-2.5-3-1c-1.1,1.5,2.5,4.7,3.7,3.7C91.6,99.9,89.7,98.1,89.7,98.1z"/>
			<path class="st17" d="M88.3,97.6c0,0,1.9,0.9,1.7,1.5c-0.2,0.6-1.1,0.6-1.8,0C87.4,98.5,87.3,97.5,88.3,97.6z"/>
		</g>
		<path class="st46" d="M123.5,82.4c0,0-7.1-0.4-9.6,6.3c-2.5,6.7-2.2,20.4,1.2,24.3c3.4,3.9,2.8,13.9,5.8,16.8
			c2.9,2.9,10.5,4.3,10.5-2.7c0,0-3.7,0.8-4.6-3.5c0,0,5.3,3.4,7.8-1.8c2.6-5.1-2.9-5.6-2.9-5.6s2.7,3.5-0.6,2.8
			c-3.2-0.8-5.1-3.7-5.1-7.4c0-3.7,5.5-1.3,4.9-8.2C130.2,96.7,125.9,82.2,123.5,82.4z"/>
		<polygon class="st47" points="107.8,111 94.2,124.5 98.2,129.1 105.5,133.2 115.2,125.5 		"/>
		<path class="st48" d="M91.8,150.7c0,0-6.5,11.3-6.5,14c0,2.7,7.1,31.5,8.9,37.8l-0.7,11.3l8.5,48.8h8.5c0,0-5.6-56.8-4.5-66.2
			c1-9.3,4.5-37.9,4.5-37.9L91.8,150.7z"/>
		<path class="st49" d="M108,161.9c0,0,8.4,33.6,8.4,43s1.4,57.8,1.4,57.8h8.2c0,0,2.1-52.5,2.1-65.3c0-12.8-3.5-41-3.5-41
			l-16.6-6.4V161.9z"/>
		<path class="st50" d="M122.1,109.8c0,0-10.5,1.2-14.3,1.2c0,0,2.6,21.6-4.9,25.7c-7.5,4-15.7,14.4-15.7,14.4s22.7,15.1,40.5,12.4
			c0,0-2.8-13.2-0.9-20.8c1.9-7.6,13.6-24.3,12.4-28.9C138,109.1,122.1,109.8,122.1,109.8z"/>
		<path class="st17" d="M79,128.8c0,0.3,0,0.5,0,0.8c0,6,7.9,6.2,7.9,6.2l-0.9-5.7C83.7,129.7,81.3,129.3,79,128.8z"/>
		<path class="st51" d="M83.4,112.4c0,0-5.8,10.2-6.2,16.4c2.3,0.5,6.5,0.9,8.9,1.3L83.4,112.4z"/>
		<path class="st52" d="M98.7,144.6l2.6,3.6l-1.3,7l5.5,0.3c0,0,5.2-10.7,4.8-10.7c-0.4,0-10.9-2.3-10.9-2.3L98.7,144.6z"/>
		<path class="st53" d="M101.8,152.5c0,0-1.9,3.3-1.9,8.7c0,5.4,1.3,6.7,0,9.6c-1.3,2.9-2.3,4-1.2,5.1c1.1,1.1,4.4,2.8,5.8,4.2
			c1.4,1.4,6.4,0.8,6.4-0.5c0-1.3-5.3-1.9-4.4-8.1c0.9-6.3,4.4-19,4.4-19H101.8z"/>
		<path class="st18" d="M106.4,155.4c0,0-1.9,3.3-1.9,8.7c0,5.4,1.3,6.7,0,9.6c-1.3,2.9-2.3,4-1.2,5.1c1.1,1.1,4.4,2.8,5.8,4.2
			c1.4,1.4,6.4,0.8,6.4-0.5c0-1.3-5.3-1.9-4.4-8.1c0.9-6.3,4.4-19,4.4-19H106.4z"/>
		<path class="st54" d="M108.3,135.8c0,0,6.4,2,8.4,3.9c2,2,0,19.2,0,19.2s-12.8-0.4-12.8-2.1c0-1.7,2.1-9,1.7-10.7
			c-0.4-1.7-10.5,1.8-11.9-2.1C92.2,140.1,108.3,135.8,108.3,135.8z"/>
		<path class="st55" d="M116.9,139.6c-1-1.4-6.2-3.2-8.7-3.8c1.9,0.7,4.6,1.8,6.5,2.9c2.7,1.6,2.8,1,1.9,20.2
			C117.2,155.6,118.9,141.9,116.9,139.6z"/>
		<path class="st18" d="M84.4,141.2c0,0-1,0.1-1,2.1c0,2,0.8,6.4,2.9,7.5c2.2,1.1,9.8,2.5,11.2,2c1.5-0.5,1.6-3.8,2.3-4.5
			c0.7-0.7,0.9-2.3-1.2-2.9c-2.1-0.5-6.7-2.1-8.6-2.4C88.2,142.7,84.4,141.2,84.4,141.2z"/>
		<path class="st32" d="M140.6,141.1c0,0-2,6.6-8.1,10c-6.1,3.4-19,1.5-23.4,4c-4.4,2.5-7.2,1.5-8.7,1.8c-1.5,0.3-1.7,0.1-2.5-0.7
			c-0.8-0.8-1.7-1-1.2-2.4c0.5-1.4-0.2-1.3-0.2-2.3s3.4-2.9,3.4-3.5c0-0.6-3,1.7-3,1.1c0-0.6,1.2-2.4,2.8-3c2-0.7,4.8,1,6.4,2.1
			c1.5,1.1,1.7,0.9,5.1,0.9c3.4,0,15.3-4.3,16.7-5.7c1.4-1.4,5.2-6.3,5.2-6.3L140.6,141.1z"/>
		<path class="st17" d="M138.7,145c1.4-2.2,1.9-3.9,1.9-3.9l-7.3-4.1c0,0-1.2,1.6-2.5,3.2C132.6,141.2,136.4,143.2,138.7,145z"/>
		<path class="st17" d="M132.4,148.2c0,0-1.1,1.8-0.8,2.1s2.8-0.6,3.1-1.1S133.2,147.9,132.4,148.2z"/>
		<path class="st56" d="M85.3,110.4c0,0,9.2-4.7,13.2-4.2c0,0-0.2,14.9,3.2,20.3c3.4,5.4,10.7,8.5,10.7,8.5s-4,6.7-10.7,8.8
			c-6.7,2.1-15.3-0.5-16.8-2.1C83.3,140.3,78,114.3,85.3,110.4z"/>
		<path class="st18" d="M127.7,102.3c0,0-0.3,0.8-0.7,2c-1.3,3.7-2.9,11.9-3,12c-1,1-7-0.3-7.5-4.1l4.5-13.9L127.7,102.3z"/>
		<path class="st17" d="M121,98.3l6.7,4c0,0-0.3,0.8-0.7,2c-2.3-0.6-6.1-2-6.8-3.3L121,98.3z"/>
		<path class="st46" d="M122.6,87l10.1,5.6c0,0,2.1,0,2.1-2.3c0-2.3-2.6-4.6-5.2-5.9c-2.6-1.3-5.9-1.9-5.9-1.9L122.6,87z"/>
		<path class="st18" d="M126.3,84.5c0,0,3.9,0.7,4.9,2.5c1,1.9,1.3,6.3,2.4,7.3c1,1,2,1.3,2,1.3s0.3,0.5-0.8,1
			c-1,0.5-0.3,1.1,0.4,1.1c0.6,0,0.1,1.2-0.4,1.4c0,0,0.6,0.2,0.5,0.8c-0.1,0.6-0.4,0.7-0.4,0.7s0,0.8,0.3,1.6c0.3,0.8-0.5,3-5.6,2
			c0,0-7.6-1.8-8-3.9c-0.5-2.1-3.8-9.9-0.9-12.8C123.5,84.6,126.3,84.5,126.3,84.5z"/>
		<path class="st57" d="M122.6,82.3c0,0,1.4-0.8,6.1,0.5c4.8,1.4,5.9,6.3,5.9,6.3s-3.1-2.1-5-2.1s-6.3-0.7-7-1.4
			C121.9,84.9,122.6,82.3,122.6,82.3z"/>
		<path class="st57" d="M123.3,82.1c0.7,0,5,4.5,3.8,8.1c-1.1,3.6-3.8,2-5.6,2.9c-1.7,1,0.3,5.3,0,7.1c-0.3,1.8-5.1,12-5.1,12
			s-4-21.6-1.6-25.5C117.3,82.7,123.3,82.1,123.3,82.1z"/>
		<path class="st17" d="M127.5,96.7c0,0.5,0.9,1,2,1c1.1,0,2-0.4,2-1s-0.9-1-2-1C128.4,95.8,127.5,96.2,127.5,96.7z"/>
		<path class="st57" d="M133.2,92.1c0,0-0.4,1.4-3,1.9L133.2,92.1z"/>
		<path class="st57" d="M132.1,91.8c0,0-1-0.6-1.8-0.6c-0.8,0-1.5,0.3-1.5,0.6c0,0,0.8-0.4,1.5-0.3c0.7,0.1,1,0.6,1.2,0.6
			S132.1,91.8,132.1,91.8z"/>
		<path class="st57" d="M121.4,96.7c0,0,3.4,1.3,0.7,8.7c-3.4,9-12.3,12.2-7.9,16.5c4.4,4.4,3.8,22.8-11.8,18.5c0,0,8.4-0.9,6.6-5.9
			c-1.8-5-8.9,0.4-8.9-5.3c0-5.7,3.3-3,4.6-9.5c1.3-6.5-2.4-3.5-1.4-10.2c0.9-6.7,11.8-22.9,11.8-22.9L121.4,96.7z"/>
		<path class="st18" d="M122.1,93.6c0,0-1.4-3-2-2.4c-0.6,0.6-1,5.1,1.3,5.5C123.6,97.1,122.1,93.6,122.1,93.6z"/>
		<path class="st17" d="M122,93.9c0,0-0.7-1.6-1.1-1.2c-0.4,0.4,0,3,0.5,3C121.9,95.6,122.1,94.8,122,93.9z"/>
		<path class="st32" d="M95.8,107.8l3.1,15.5c0,0,1.7,4.5,4.9,5.8c3.2,1.3,8.4-1.1,10-2.8c1.7-1.7,5-2,6.3-4.2
			c1.3-2.2-3.2,1.1-3.2,0.2c0-0.9,2.9-1,3.4-2.7c0.5-1.8-4.3,1.7-4.3,1.2s3.7-2.4,3.2-3.5c-0.5-1.2-2.6,2-4.3,2.4
			c-1.6,0.4,2.2-1.8,1.4-2.6c-0.9-0.9-3.4,2.7-4,2.7c-0.5,0,1.7-2.2,0-1.7c-1.7,0.5-1.4,3-2.4,4.1c-1.1,1.1-5-2-6.3-4.6
			C102.3,114.8,95.8,107.8,95.8,107.8z"/>
		<path class="st58" d="M95.1,114.5c0.5,3.7,1.1,7.5,2.6,10.9c0,0,11.2-2,10.4-5.3c-0.1-0.5-0.1-0.5-1.9-5.5c-1.4-4-1.9-8.3-6.9-8.7
			C93.2,105.5,94.7,111.2,95.1,114.5z"/>
		<path class="st59" d="M106.5,115c-1.2-3.6-1.8-7.9-5.5-8.9c-1.7-0.4-4-0.5-5.2,0.7c1.5-1.1,5.3-0.9,7.1,1.2c0.6,0.6,1,1.4,1.3,2.2
			c0.7,1.6,1.1,3.4,1.8,5c0,0.1,1.9,4.9,2,5C107.6,118.4,107.1,116.7,106.5,115z"/>
		<path class="st60" d="M136.4,111.2c0,0,1.3-0.3,4.1,3.3c3.1,3.9,2.1,29.3,2.1,29.3l-12.4-5.8c0,0,2.5-9.2,2.5-15.2
			C132.6,116.9,136.4,111.2,136.4,111.2z"/>
		<path class="st61" d="M133.3,117.5c-1.7,5.2,0.2,3.6-3.1,20.6c4.9-14.8,0.6-16.5,6.2-26.8C135,113.1,134,115.2,133.3,117.5z"/>
		<path class="st17" d="M105.2,127.2c0,0-0.6,1.3-0.3,1.6c0.3,0.3,2,0,2-0.4C106.9,127.9,105.2,127.2,105.2,127.2z"/>
	</g>
	<path class="st57" d="M131.5,93.8c0,0.4,0.2,0.8,0.4,0.8c0.2,0,0.4-0.4,0.4-0.8c0-0.4-0.2-0.8-0.4-0.8
		C131.7,93.1,131.5,93.4,131.5,93.8z"/>
</g>
</svg>
